<?xml version="1.0" encoding="UTF-8" standalone="no"?>
<!DOCTYPE svg PUBLIC "-//W3C//DTD SVG 1.1//EN" "http://www.w3.org/Graphics/SVG/1.1/DTD/svg11.dtd">
<svg width="100%" height="100%" viewBox="0 0 159 182" version="1.1" xmlns="http://www.w3.org/2000/svg" xmlns:xlink="http://www.w3.org/1999/xlink" xml:space="preserve" xmlns:serif="http://www.serif.com/" style="fill-rule:evenodd;clip-rule:evenodd;stroke-linejoin:round;stroke-miterlimit:2;">
    <g id="Mesa-de-trabajo1" serif:id="Mesa de trabajo1" transform="matrix(0.910019,0,0,0.874748,-12,11.5)">
        <rect x="0" y="0" width="200" height="181.642" style="fill:none;"/>
        <g transform="matrix(6.12323e-17,1.04032,-0.9619,6.12743e-17,187.908,-13.149)">
            <path d="M0,-0L0.687,-0C1.943,49.728 46.006,89.742 100.002,89.742C153.996,89.742 198.06,49.622 199.316,-0L200,-0L200,6.999C195.014,54.056 152.123,90.798 100.002,90.798C47.765,90.798 4.97,54.049 0,6.985L0,-0ZM22.947,-0L24.089,-0C25.345,37.798 58.906,68.099 100.002,68.099C141.098,68.099 174.658,37.692 175.8,-0L177.056,-0C175.8,38.431 141.782,69.154 100.002,69.154C58.221,69.154 24.203,38.431 22.947,-0ZM51.543,-0L52.685,-0C53.941,23.228 74.716,41.704 100.059,41.704C125.401,41.704 146.063,23.122 147.319,-0L148.46,-0C147.319,23.862 126.086,42.759 100.059,42.759C74.032,42.759 52.685,23.755 51.543,-0ZM0.686,181.642L-0,181.642L0,174.663C4.976,127.598 47.871,90.844 100.001,90.844C152.123,90.844 195.014,127.588 200,174.645L200,181.642L199.315,181.642C198.058,132.02 153.996,91.901 100.001,91.901C46.006,91.901 1.828,131.915 0.686,181.642ZM0,58.725L34.704,90.821L0,122.918L0,121.439L33.105,90.821L0,60.203L0,58.725ZM200,122.918L165.298,90.821L200,58.725L200,60.203L166.896,90.821L200,121.439L200,122.918ZM22.947,181.642C24.204,143.212 58.222,112.488 100.002,112.488C141.782,112.488 175.799,143.212 177.056,181.642L175.914,181.642C174.658,143.95 141.097,113.545 100.002,113.545C58.906,113.545 25.231,143.845 24.089,181.642L22.947,181.642ZM51.486,181.642C52.743,157.887 73.975,138.883 100.002,138.883C126.028,138.883 147.262,157.782 148.517,181.642L147.375,181.642C146.12,158.52 125.344,139.94 100.002,139.94C74.545,139.94 53.77,158.415 52.628,181.642L51.486,181.642Z" style="fill:rgb(205,194,179);"/>
        </g>
    </g>
</svg>
