<?xml version="1.0" encoding="UTF-8" standalone="no"?>
<!DOCTYPE svg PUBLIC "-//W3C//DTD SVG 1.1//EN" "http://www.w3.org/Graphics/SVG/1.1/DTD/svg11.dtd">
<svg width="100%" height="100%" viewBox="0 0 183 159" version="1.1" xmlns="http://www.w3.org/2000/svg" xmlns:xlink="http://www.w3.org/1999/xlink" xml:space="preserve" xmlns:serif="http://www.serif.com/" style="fill-rule:evenodd;clip-rule:evenodd;stroke-linejoin:round;stroke-miterlimit:2;">
    <g id="Mesa-de-trabajo1" serif:id="Mesa de trabajo1" transform="matrix(0.910019,0,0,0.874748,0,0)">
        <rect x="0" y="0" width="200" height="181.642" style="fill:none;"/>
        <clipPath id="_clip1">
            <rect x="0" y="0" width="200" height="181.642"/>
        </clipPath>
        <g clip-path="url(#_clip1)">
            <g transform="matrix(1.09888,0,0,1.14319,-251.618,-0.471537)">
                <path d="M410.358,0.412L411.396,0.412C410.254,44.466 369.739,79.838 319.98,79.838C270.116,79.838 229.706,44.466 228.563,0.412L229.602,0.412C230.745,43.912 270.843,78.914 319.98,78.914C369.116,78.914 409.215,43.819 410.358,0.412ZM388.958,0.412L390.101,0.412C388.958,34.03 358.001,60.905 319.98,60.905C281.959,60.905 251.002,34.03 249.859,0.412L250.898,0.412C252.041,33.476 282.582,59.982 319.98,59.982C357.378,59.982 387.919,33.383 388.958,0.412ZM363.04,0.412L364.078,0.412C363.04,21.285 343.717,37.816 320.032,37.816C296.347,37.816 276.921,21.192 275.882,0.412L276.921,0.412C278.064,20.731 296.97,36.893 320.032,36.893C343.094,36.893 361.897,20.638 363.04,0.412ZM319.979,79.878C369.739,79.878 410.253,115.251 411.396,159.304L410.357,159.304C409.214,115.897 369.116,80.802 319.979,80.802C270.843,80.802 230.64,115.805 229.601,159.304L228.563,159.304C229.705,115.251 270.219,79.878 319.979,79.878ZM319.98,98.811C358.001,98.811 388.958,125.687 390.101,159.304L389.062,159.304C387.919,126.333 357.378,99.735 319.98,99.735C282.582,99.735 251.937,126.241 250.898,159.304L249.859,159.304C251.002,125.687 281.959,98.811 319.98,98.811ZM319.98,121.9C343.665,121.9 362.988,138.432 364.13,159.304L363.091,159.304C361.949,139.078 343.042,122.824 319.98,122.824C296.814,122.824 277.908,138.986 276.869,159.304L275.83,159.304C276.973,138.524 296.295,121.9 319.98,121.9ZM228.977,51.782L260.558,79.858L228.977,107.934L197.397,79.858L228.977,51.782ZM198.851,79.858L228.977,106.641L259.103,79.858L228.977,53.075L198.851,79.858ZM410.981,51.782L442.562,79.858L410.981,107.934L379.401,79.858L410.981,51.782ZM380.855,79.858L410.981,106.641L441.107,79.858L410.981,53.075L380.855,79.858Z" style="fill:rgb(205,194,179);"/>
            </g>
        </g>
    </g>
</svg>
