<?xml version="1.0" encoding="UTF-8" standalone="no"?>
<!DOCTYPE svg PUBLIC "-//W3C//DTD SVG 1.1//EN" "http://www.w3.org/Graphics/SVG/1.1/DTD/svg11.dtd">
<svg width="100%" height="100%" viewBox="0 0 80 80" version="1.1" xmlns="http://www.w3.org/2000/svg" xmlns:xlink="http://www.w3.org/1999/xlink" xml:space="preserve" xmlns:serif="http://www.serif.com/" style="fill-rule:evenodd;clip-rule:evenodd;stroke-linejoin:round;stroke-miterlimit:2;">
    <g transform="matrix(0.958399,0,0,1,0.226444,0.5)">
        <path d="M-0.022,38.74C-0.022,27.553 5.728,17.867 14.389,10.956C23.005,4.082 34.44,0.021 45.663,0.021C56.944,0.021 66.265,4.108 72.774,10.957C79.261,17.782 83.022,27.434 83.022,38.74C83.022,61.179 63.111,78.979 40.617,78.979C18.169,78.979 -0.022,61.246 -0.022,38.74ZM47.356,27.537L30.14,39.537C29.711,39.836 29.47,40.322 29.498,40.83C29.526,41.337 29.82,41.796 30.28,42.05L47.496,51.55C48.244,51.963 49.202,51.716 49.633,50.998C50.064,50.281 49.806,49.363 49.058,48.95L33.932,40.603C33.932,40.603 49.197,29.963 49.197,29.963C49.896,29.476 50.051,28.537 49.543,27.868C49.035,27.198 48.055,27.05 47.356,27.537Z" style="fill:rgb(250,176,57);"/>
    </g>
</svg>
