<?xml version="1.0" encoding="UTF-8" standalone="no"?>
<!DOCTYPE svg PUBLIC "-//W3C//DTD SVG 1.1//EN" "http://www.w3.org/Graphics/SVG/1.1/DTD/svg11.dtd">
<svg width="100%" height="100%" viewBox="0 0 100 100" version="1.1" xmlns="http://www.w3.org/2000/svg" xmlns:xlink="http://www.w3.org/1999/xlink" xml:space="preserve" xmlns:serif="http://www.serif.com/" style="fill-rule:evenodd;clip-rule:evenodd;stroke-linejoin:round;stroke-miterlimit:2;">
    <g transform="matrix(0.778401,0,0,0.778401,83.7373,16.263)">
        <path d="M-88.08,-1.397C-63.412,-26.065 -23.273,-26.065 1.396,-1.396C26.065,23.273 26.065,63.411 1.396,88.079C-23.272,112.748 -63.411,112.748 -88.08,88.079C-112.749,63.411 -112.748,23.272 -88.08,-1.397ZM0,86.683C23.898,62.785 23.898,23.899 0,0C-23.899,-23.898 -62.785,-23.899 -86.683,0C-110.582,23.898 -110.582,62.785 -86.683,86.683C-62.785,110.581 -23.898,110.581 0,86.683ZM1.721,37.237L1.757,37.103C1.9,36.565 2.15,36.104 2.496,35.732C3.712,34.434 5.755,34.366 7.053,35.58C8.01,36.476 8.327,37.848 7.861,39.077L7.009,41.327L9.294,40.576C9.65,40.46 9.943,40.401 10.216,40.392C11.162,40.368 12.067,40.727 12.767,41.425C13.486,42.143 13.902,43.12 13.937,44.177C13.972,45.234 13.623,46.237 12.953,47.001C12.301,47.743 11.421,48.171 10.476,48.202C10.065,48.216 9.639,48.142 9.211,47.983L7.451,47.33L7.67,49.195C7.783,50.151 7.481,51.091 6.843,51.773C5.628,53.071 3.584,53.139 2.286,51.925C1.691,51.368 1.335,50.605 1.282,49.775L1.203,48.698L1.2,48.698C0.993,45.084 1.134,41.474 1.619,37.951L1.657,37.675C1.669,37.517 1.691,37.374 1.721,37.237ZM-35.165,93.736C-36.06,94.693 -37.433,95.011 -38.661,94.545L-40.911,93.692L-40.161,95.978C-40.044,96.334 -39.985,96.627 -39.976,96.9C-39.952,97.846 -40.312,98.75 -41.01,99.45C-41.727,100.17 -42.705,100.586 -43.762,100.62C-44.818,100.656 -45.821,100.306 -46.585,99.636C-47.328,98.984 -47.755,98.105 -47.786,97.16C-47.8,96.749 -47.726,96.323 -47.567,95.895L-46.914,94.134L-48.779,94.354C-49.735,94.465 -50.675,94.165 -51.358,93.526C-52.656,92.312 -52.724,90.267 -51.51,88.97C-50.953,88.375 -50.189,88.019 -49.359,87.965L-48.283,87.887L-48.283,87.883C-46.975,87.808 -45.67,87.796 -44.368,87.811L-44.368,83.366L-83.351,83.366L-83.351,3.339L-44.368,3.339L-44.368,-1.156C-45.731,-1.224 -47.097,-1.326 -48.46,-1.494L-48.459,-1.508L-49.57,-1.652C-50.395,-1.76 -51.133,-2.166 -51.649,-2.797C-52.775,-4.173 -52.572,-6.208 -51.196,-7.333C-50.473,-7.925 -49.515,-8.163 -48.569,-7.988L-46.722,-7.644L-47.257,-9.446C-47.388,-9.883 -47.432,-10.312 -47.391,-10.722C-47.298,-11.663 -46.814,-12.513 -46.029,-13.114C-45.223,-13.731 -44.199,-14.014 -43.147,-13.909C-42.095,-13.804 -41.147,-13.325 -40.479,-12.558C-39.829,-11.814 -39.526,-10.887 -39.616,-9.946C-39.644,-9.674 -39.722,-9.384 -39.861,-9.038L-40.761,-6.808L-38.46,-7.51C-37.203,-7.892 -35.855,-7.485 -35.025,-6.471C-33.899,-5.095 -34.103,-3.06 -35.478,-1.935C-35.871,-1.613 -36.348,-1.394 -36.894,-1.287L-37.03,-1.26C-37.17,-1.239 -37.314,-1.227 -37.472,-1.225L-37.752,-1.206C-39.26,-1.099 -40.781,-1.069 -42.307,-1.088L-42.307,3.339L-3.323,3.339L-3.323,83.366L-42.307,83.366L-42.307,87.869C-40.704,87.948 -39.111,88.086 -37.536,88.303L-37.26,88.34C-37.102,88.353 -36.958,88.374 -36.822,88.404L-36.687,88.441C-36.149,88.583 -35.688,88.833 -35.317,89.18C-34.018,90.395 -33.951,92.439 -35.165,93.736ZM-42.307,53.192L-42.307,81.392L-5.298,81.391L-5.298,5.314L-42.307,5.314L-42.307,33.491C-40.38,33.692 -38.522,34.453 -36.955,35.776L-23.199,22.02C-24.042,21.079 -24.893,20.145 -25.675,19.142L-25.664,19.135L-26.348,18.245C-26.854,17.586 -27.089,16.777 -27.008,15.967C-26.831,14.198 -25.248,12.903 -23.48,13.08C-22.55,13.172 -21.704,13.681 -21.159,14.474L-20.096,16.023L-19.202,14.371C-18.984,13.97 -18.713,13.634 -18.394,13.373C-17.662,12.774 -16.719,12.516 -15.739,12.646C-14.732,12.779 -13.808,13.302 -13.139,14.121C-12.469,14.94 -12.138,15.948 -12.206,16.962C-12.273,17.949 -12.716,18.818 -13.444,19.42C-13.657,19.594 -13.916,19.742 -14.26,19.889L-16.473,20.83L-14.35,21.96C-13.19,22.578 -12.525,23.819 -12.656,25.123C-12.832,26.893 -14.414,28.188 -16.183,28.011C-16.689,27.96 -17.18,27.778 -17.643,27.467L-17.758,27.39C-17.871,27.306 -17.982,27.213 -18.094,27.103L-18.307,26.919C-19.525,25.861 -20.689,24.727 -21.819,23.554L-35.526,37.262C-34.353,38.768 -33.676,40.515 -33.49,42.323L-9.716,42.323L-9.715,44.384L-33.493,44.384C-33.682,46.188 -34.362,47.931 -35.536,49.434L-21.75,63.221C-20.676,62.265 -19.579,61.343 -18.443,60.482L-18.221,60.314C-18.1,60.211 -17.984,60.124 -17.866,60.049L-17.745,59.98C-17.264,59.701 -16.762,59.551 -16.253,59.534C-14.476,59.475 -12.983,60.873 -12.924,62.648C-12.881,63.958 -13.627,65.153 -14.826,65.692L-17.018,66.681L-14.872,67.765C-14.538,67.935 -14.289,68.101 -14.09,68.286C-13.404,68.939 -13.018,69.833 -13.016,70.821C-13.015,71.838 -13.413,72.822 -14.135,73.595C-14.857,74.367 -15.813,74.829 -16.828,74.896C-17.814,74.96 -18.738,74.639 -19.428,73.993C-19.729,73.713 -19.977,73.359 -20.168,72.944L-20.951,71.238L-22.114,72.712C-22.711,73.466 -23.589,73.918 -24.523,73.95C-26.299,74.009 -27.793,72.611 -27.852,70.835C-27.879,70.021 -27.591,69.228 -27.042,68.604L-26.336,67.788L-26.339,67.785C-25.356,66.684 -24.324,65.635 -23.265,64.62L-36.968,50.917C-38.532,52.234 -40.386,52.991 -42.307,53.192ZM-81.377,81.391L-44.368,81.391L-44.368,53.193C-46.173,53.006 -47.917,52.329 -49.422,51.158L-63.077,64.813C-62.124,65.883 -61.203,66.979 -60.345,68.112L-60.177,68.334C-60.074,68.454 -59.987,68.571 -59.911,68.689L-59.842,68.81C-59.563,69.291 -59.413,69.794 -59.396,70.302C-59.337,72.079 -60.735,73.572 -62.511,73.63C-63.82,73.674 -65.015,72.928 -65.555,71.73L-66.543,69.536L-67.628,71.683C-67.798,72.017 -67.963,72.266 -68.149,72.465C-68.802,73.151 -69.696,73.537 -70.684,73.538C-71.701,73.539 -72.685,73.143 -73.457,72.419C-74.229,71.697 -74.691,70.741 -74.758,69.727C-74.822,68.741 -74.502,67.817 -73.856,67.127C-73.575,66.825 -73.222,66.577 -72.807,66.386L-71.1,65.604L-72.574,64.441C-73.329,63.845 -73.781,62.966 -73.812,62.031C-73.871,60.255 -72.474,58.762 -70.698,58.703C-69.883,58.676 -69.091,58.963 -68.467,59.513L-67.65,60.219L-67.648,60.216C-66.543,61.2 -65.493,62.235 -64.476,63.296L-50.908,49.729C-52.229,48.164 -52.99,46.308 -53.192,44.383L-76.434,44.383L-76.434,42.323L-53.195,42.323C-52.997,40.396 -52.239,38.536 -50.918,36.967L-64.542,23.343C-65.481,24.184 -66.413,25.032 -67.412,25.812L-67.421,25.802L-68.309,26.484C-68.968,26.992 -69.778,27.226 -70.588,27.145C-72.357,26.969 -73.652,25.386 -73.475,23.618C-73.382,22.687 -72.874,21.841 -72.08,21.297L-70.533,20.233L-72.184,19.339C-72.585,19.121 -72.92,18.85 -73.182,18.531C-73.781,17.799 -74.039,16.856 -73.91,15.876C-73.776,14.87 -73.252,13.945 -72.433,13.276C-71.615,12.607 -70.606,12.275 -69.592,12.344C-68.606,12.411 -67.736,12.853 -67.135,13.581C-66.961,13.795 -66.812,14.054 -66.666,14.397L-65.725,16.61L-64.595,14.487C-63.977,13.328 -62.735,12.662 -61.432,12.793C-59.662,12.97 -58.368,14.552 -58.544,16.321C-58.594,16.826 -58.777,17.318 -59.088,17.781L-59.165,17.896C-59.248,18.009 -59.342,18.119 -59.452,18.232L-59.637,18.444C-60.696,19.665 -61.832,20.831 -63.007,21.963L-49.434,35.535C-47.927,34.358 -46.178,33.677 -44.368,33.49L-44.368,5.314L-81.376,5.314L-81.377,81.391ZM-42.307,35.469L-42.307,35.501C-42.992,35.412 -43.682,35.412 -44.368,35.5L-44.368,35.468C-44.435,35.477 -44.497,35.509 -44.564,35.519C-45.083,35.599 -45.592,35.728 -46.088,35.911C-46.16,35.937 -46.235,35.946 -46.305,35.975C-46.857,36.196 -47.381,36.495 -47.881,36.845C-47.931,36.88 -47.989,36.896 -48.038,36.932L-48.015,36.955C-48.34,37.193 -48.665,37.432 -48.958,37.725C-49.164,37.931 -49.32,38.165 -49.499,38.386L-49.521,38.364C-49.612,38.476 -49.682,38.598 -49.766,38.713C-49.869,38.857 -49.974,38.997 -50.067,39.145C-50.299,39.515 -50.504,39.897 -50.669,40.292C-50.707,40.382 -50.73,40.475 -50.765,40.567C-50.895,40.915 -50.999,41.268 -51.079,41.629C-51.107,41.756 -51.133,41.882 -51.155,42.011C-51.172,42.116 -51.203,42.218 -51.216,42.323L-51.184,42.323C-51.272,43.009 -51.272,43.698 -51.182,44.383L-51.214,44.383C-51.201,44.484 -51.171,44.582 -51.154,44.682C-51.132,44.81 -51.105,44.934 -51.078,45.059C-50.999,45.412 -50.897,45.758 -50.771,46.098C-50.733,46.2 -50.706,46.304 -50.664,46.404C-50.5,46.794 -50.298,47.171 -50.069,47.536C-49.972,47.692 -49.861,47.838 -49.752,47.988C-49.669,48.102 -49.6,48.222 -49.511,48.332L-49.489,48.311C-49.313,48.528 -49.161,48.757 -48.959,48.96C-48.662,49.256 -48.333,49.499 -48.004,49.739L-48.025,49.761C-47.979,49.795 -47.925,49.81 -47.878,49.842C-47.376,50.192 -46.85,50.491 -46.297,50.712C-46.231,50.738 -46.16,50.748 -46.093,50.773C-45.593,50.956 -45.081,51.085 -44.56,51.165C-44.495,51.175 -44.433,51.206 -44.368,51.214L-44.368,51.184C-43.682,51.272 -42.993,51.272 -42.307,51.182L-42.307,51.213C-42.205,51.2 -42.107,51.171 -42.006,51.153C-41.878,51.132 -41.754,51.105 -41.627,51.077C-41.269,50.998 -40.917,50.895 -40.572,50.765C-40.478,50.73 -40.382,50.705 -40.289,50.667C-39.894,50.502 -39.515,50.297 -39.145,50.066C-38.997,49.973 -38.858,49.869 -38.716,49.766C-38.599,49.682 -38.477,49.611 -38.365,49.521L-38.388,49.498C-38.166,49.319 -37.932,49.163 -37.726,48.958C-37.432,48.664 -37.194,48.339 -36.956,48.015L-36.933,48.037C-36.897,47.988 -36.882,47.931 -36.847,47.881C-36.498,47.382 -36.198,46.859 -35.977,46.309C-35.951,46.244 -35.942,46.174 -35.918,46.109C-35.732,45.609 -35.602,45.097 -35.521,44.576C-35.511,44.51 -35.479,44.449 -35.471,44.383L-35.502,44.383C-35.412,43.698 -35.412,43.008 -35.5,42.323L-35.469,42.323C-35.477,42.256 -35.508,42.194 -35.518,42.129C-35.598,41.61 -35.726,41.103 -35.908,40.606C-35.934,40.534 -35.944,40.459 -35.972,40.387C-36.193,39.835 -36.491,39.31 -36.841,38.808C-36.874,38.76 -36.889,38.705 -36.923,38.658L-36.945,38.68C-37.185,38.351 -37.428,38.022 -37.725,37.725C-37.927,37.523 -38.157,37.371 -38.374,37.195L-38.352,37.173C-38.464,37.083 -38.586,37.012 -38.701,36.928C-38.849,36.821 -38.992,36.712 -39.145,36.617C-39.512,36.386 -39.89,36.184 -40.282,36.019C-40.381,35.978 -40.482,35.952 -40.581,35.915C-40.924,35.787 -41.271,35.684 -41.626,35.606C-41.752,35.578 -41.876,35.552 -42.003,35.53C-42.105,35.513 -42.204,35.483 -42.307,35.469ZM-88.191,48.061L-88.336,49.172C-88.443,49.997 -88.85,50.735 -89.48,51.251C-90.856,52.377 -92.891,52.174 -94.016,50.798C-94.608,50.075 -94.847,49.117 -94.671,48.17L-94.329,46.324L-96.129,46.859C-96.566,46.99 -96.995,47.035 -97.405,46.994C-98.347,46.9 -99.196,46.416 -99.797,45.631C-100.415,44.825 -100.697,43.802 -100.592,42.749C-100.487,41.697 -100.008,40.749 -99.243,40.081C-98.498,39.431 -97.57,39.128 -96.63,39.218C-96.357,39.246 -96.068,39.324 -95.722,39.463L-93.491,40.363L-94.192,38.062C-94.576,36.806 -94.168,35.457 -93.154,34.627C-91.779,33.501 -89.744,33.705 -88.618,35.081C-88.296,35.474 -88.078,35.95 -87.97,36.497L-87.943,36.633C-87.922,36.772 -87.911,36.916 -87.909,37.074L-87.889,37.354C-87.639,40.886 -87.736,44.483 -88.177,48.062L-88.191,48.061Z" style="fill:rgb(250,176,57);"/>
    </g>
</svg>
