<?xml version="1.0" encoding="UTF-8" standalone="no"?>
<!DOCTYPE svg PUBLIC "-//W3C//DTD SVG 1.1//EN" "http://www.w3.org/Graphics/SVG/1.1/DTD/svg11.dtd">
<svg width="100%" height="100%" viewBox="0 0 1920 1045" version="1.1" xmlns="http://www.w3.org/2000/svg" xmlns:xlink="http://www.w3.org/1999/xlink" xml:space="preserve" xmlns:serif="http://www.serif.com/" style="fill-rule:evenodd;clip-rule:evenodd;stroke-linejoin:round;stroke-miterlimit:2;">
    <g transform="matrix(1.05326,0,0,1.05326,540.085,344.878)">
        <path d="M584.229,15.59L524.246,21.655L524.116,21.651C497.932,20.732 471.748,19.814 445.564,18.895L445.387,18.888L445.213,18.849C420.219,13.21 395.225,7.572 370.23,1.932C336.203,7.273 302.176,12.614 268.149,17.954L268.087,17.964L199.677,24.084L128.094,42.805C111.021,48.28 93.949,53.754 76.877,59.23L76.663,59.299L76.44,59.316C62.211,60.387 47.983,61.46 33.755,62.533C22.871,70.278 11.985,78.022 1.101,85.767L-1.101,82.673C9.927,74.826 20.956,66.979 31.984,59.132L32.415,58.825L32.942,58.785C47.272,57.705 61.601,56.625 75.931,55.545C92.949,50.087 109.965,44.63 126.983,39.173L127.032,39.157L199.023,20.33L267.623,14.192C301.748,8.837 335.874,3.481 370,-1.876L370.358,-1.932L370.712,-1.852C395.767,3.801 420.821,9.453 445.875,15.106C471.957,16.021 498.039,16.935 524.12,17.851L583.512,11.845C583.395,9.727 583.277,7.609 583.16,5.491C582.125,-0.77 581.09,-7.03 580.055,-13.29L580.017,-13.522L580.036,-13.757C581.153,-27.216 582.27,-40.674 583.387,-54.133L583.419,-54.513L583.595,-54.851C586.584,-60.607 589.575,-66.362 592.564,-72.119C592.49,-81.991 592.414,-91.863 592.338,-101.736L592.331,-102.684L593.084,-103.26C594.184,-104.101 595.285,-104.942 596.385,-105.783C597.35,-111.873 598.313,-117.962 599.278,-124.05C595.316,-134.791 591.354,-145.532 587.392,-156.272L590.955,-157.586C594.974,-146.691 598.993,-135.795 603.012,-124.9L603.184,-124.435L603.106,-123.946C602.076,-117.444 601.047,-110.942 600.017,-104.439L599.899,-103.689L599.295,-103.227C598.245,-102.424 597.194,-101.621 596.143,-100.818C596.217,-91.103 596.292,-81.389 596.366,-71.676L596.369,-71.205L596.152,-70.787C593.149,-65.003 590.144,-59.221 587.141,-53.439C586.041,-40.185 584.941,-26.931 583.841,-13.677C584.868,-7.461 585.896,-1.244 586.923,4.974L586.94,5.075L586.946,5.178C587.094,7.841 587.241,10.503 587.389,13.167C589.195,18.132 591.001,23.097 592.806,28.062L592.979,28.537L592.893,29.034C589.314,49.752 585.733,70.468 582.154,91.186C582.518,93.298 582.882,95.411 583.246,97.523L583.3,97.837L583.249,98.151C581.475,109.055 579.701,119.958 577.927,130.862L574.179,130.252C575.936,119.453 577.693,108.655 579.449,97.855C579.085,95.74 578.721,93.623 578.356,91.508L578.3,91.185L578.356,90.862C581.925,70.203 585.495,49.545 589.065,28.885C587.453,24.454 585.841,20.022 584.229,15.59ZM179.866,180.897C179.921,180.964 179.976,181.031 180.031,181.098C222.737,196.965 265.442,212.833 308.147,228.7C338.347,228.243 368.547,227.785 398.746,227.328L399.422,227.318L399.953,227.737C404.72,231.508 409.487,235.278 414.253,239.049L414.31,239.094L414.363,239.144C420.21,244.544 426.055,249.944 431.9,255.345C444.295,257.517 456.691,259.69 469.085,261.863C477.936,260.169 486.785,258.476 495.636,256.783C505.367,249.526 515.097,242.268 524.829,235.01L525.136,234.781L525.507,234.689C535.931,232.108 546.356,229.526 556.78,226.944L557.693,230.631C547.393,233.182 537.092,235.733 526.792,238.284C517.046,245.552 507.302,252.821 497.557,260.089L497.207,260.349L496.779,260.431C487.671,262.173 478.565,263.915 469.457,265.658L469.115,265.724L468.772,265.664C456.08,263.439 443.387,261.214 430.694,258.989L430.144,258.892L429.733,258.513C423.769,253.003 417.805,247.493 411.84,241.982C407.269,238.366 402.698,234.751 398.127,231.135C368.035,231.591 337.941,232.047 307.849,232.503L307.492,232.508L307.158,232.384C264.181,216.416 221.204,200.447 178.227,184.479L177.746,184.301L177.421,183.904C170.345,175.275 163.27,166.648 156.194,158.02C135.793,156.509 115.392,154.997 94.991,153.486L94.713,153.466L94.454,153.366C86.228,150.226 78.002,147.085 69.776,143.944C62.111,146.105 54.446,148.265 46.782,150.425L45.592,150.76L44.804,149.808C40.037,144.05 35.27,138.293 30.502,132.535L-1.712,120.768L-0.409,117.201L32.771,129.32L33.099,129.716C37.714,135.289 42.327,140.862 46.941,146.434C54.411,144.329 61.881,142.224 69.35,140.118L69.956,139.947L70.543,140.171C78.879,143.354 87.214,146.537 95.548,149.719C116.128,151.243 136.707,152.769 157.286,154.293L158.098,154.353L158.614,154.982C164.459,162.11 170.304,169.236 176.149,176.364C267.914,192.994 359.678,209.624 451.443,226.255C460.686,224.137 469.929,222.019 479.171,219.9C477.304,217.148 475.436,214.395 473.568,211.642L385.055,149.917C359.311,143.39 333.569,136.864 307.826,130.337C254.884,120.982 201.943,111.627 149.001,102.271C100.931,106.174 52.86,110.077 4.789,113.979L4.482,110.194C52.634,106.285 100.786,102.375 148.938,98.466L149.181,98.446L149.422,98.489C202.467,107.863 255.511,117.236 308.556,126.61L308.624,126.622L308.692,126.639C334.569,133.2 360.446,139.76 386.324,146.321L386.66,146.406L476.316,208.929L476.513,209.219C478.724,212.476 480.934,215.733 483.143,218.99C500.012,215.124 516.882,211.258 533.751,207.393L534.599,211.094C507.037,217.41 479.474,223.727 451.912,230.043L451.533,230.13L451.149,230.061C360.721,213.673 270.294,197.285 179.866,180.897ZM860.709,142.704C829.914,146.919 799.118,151.134 768.322,155.349L615.037,205.192L613.862,201.581L767.471,151.632L767.639,151.609C798.749,147.352 829.861,143.093 860.971,138.835C876.168,132.437 891.365,126.038 906.562,119.639L906.755,119.557L906.961,119.52C917.6,117.596 928.241,115.672 938.881,113.747C944.729,109.137 950.576,104.526 956.424,99.915L956.549,99.817L956.688,99.741C1006.96,72.24 1057.23,44.739 1107.5,17.238L1109.32,20.569C1059.1,48.045 1008.87,75.521 958.65,102.996C952.72,107.671 946.791,112.348 940.86,117.023L940.488,117.316L940.023,117.4C929.296,119.341 918.569,121.28 907.843,123.22C893.433,129.288 879.023,135.355 864.614,141.422C876.505,155.277 888.395,169.131 900.286,182.986C916.648,193.367 933.011,203.749 949.373,214.131C959.579,212.224 969.784,210.317 979.99,208.411L980.815,208.257L981.485,208.764C997.104,220.592 1012.72,232.421 1028.34,244.25L1026.05,247.277C1010.65,235.617 995.257,223.957 979.861,212.298C969.686,214.199 959.511,216.1 949.335,218.001L948.6,218.138L947.969,217.738C931.317,207.172 914.664,196.606 898.012,186.041L897.773,185.889L897.588,185.674C885.295,171.351 873.003,157.028 860.709,142.704ZM-19.435,80.925L-23.193,81.471C-28.618,44.092 -34.042,6.713 -39.467,-30.666L-35.709,-31.212C-30.284,6.167 -24.86,43.546 -19.435,80.925ZM591.954,223.391L593.285,219.834C611.112,226.507 628.939,233.179 646.766,239.852L647.334,240.065L647.674,240.567C651.323,245.969 654.972,251.37 658.621,256.771C688.651,273.566 718.68,290.361 748.709,307.155L748.996,307.315L749.212,307.562C773.175,334.965 797.138,362.368 821.101,389.771C829.86,396.651 838.621,403.532 847.381,410.412L847.618,410.598C847.618,410.598 856.747,424.222 856.747,424.222C864.29,425.553 871.833,426.885 879.377,428.216L878.718,431.956C870.908,430.578 863.099,429.199 855.29,427.821L854.492,427.681L844.799,413.213C836.071,406.358 827.343,399.503 818.616,392.648L818.476,392.538L818.359,392.404C794.429,365.04 770.499,337.674 746.569,310.309C716.504,293.495 686.439,276.68 656.374,259.866L655.98,259.645L655.727,259.271C652.107,253.913 648.486,248.555 644.867,243.196C627.229,236.594 609.591,229.993 591.954,223.391Z" style="fill:rgb(96,93,93);"/>
    </g>
    <g transform="matrix(1.05326,0,0,1.05326,1195.95,541.857)">
        <path d="M0,38.574L-2.692,25.497L-4.615,5.498L-18.461,-12.579L-87.691,0.498L-97.444,32.758C-97.57,33.173 -97.272,33.596 -96.839,33.618L-81.02,34.427C-79.919,34.484 -78.854,34.831 -77.931,35.434L-56.637,49.042C-56.501,49.129 -55.778,49.642 -55.038,50.144C-54.039,50.822 -52.845,51.153 -51.64,51.08L-33.552,50.178C-32.883,50.224 -32.237,49.923 -31.842,49.38L-22.782,37.994C-22.65,37.813 -22.567,37.619 -22.505,37.422L0,38.574Z" style="fill:rgb(147,57,57);fill-rule:nonzero;"/>
    </g>
    <g transform="matrix(-1.05326,0,0,1.05326,786.339,454.74)">
        <path d="M0,-18.143C5.038,-18.143 9.123,-14.082 9.123,-9.072C9.123,-4.062 5.038,0 0,0C-5.038,0 -9.123,-4.062 -9.123,-9.072C-9.123,-14.082 -5.038,-18.143 0,-18.143" style="fill:rgb(147,57,57);fill-rule:nonzero;"/>
    </g>
    <g transform="matrix(-1.05326,0,0,1.05326,667.682,291.738)">
        <path d="M0,-29.482C8.187,-29.482 14.824,-22.882 14.824,-14.741C14.824,-6.6 8.187,0 0,0C-8.187,0 -14.824,-6.6 -14.824,-14.741C-14.824,-22.882 -8.187,-29.482 0,-29.482" style="fill:rgb(147,57,57);fill-rule:nonzero;"/>
    </g>
    <g transform="matrix(-1.05326,0,0,1.05326,1354.45,219.325)">
        <path d="M0,-26.647C7.4,-26.647 13.399,-20.682 13.399,-13.323C13.399,-5.965 7.4,0 0,0C-7.4,0 -13.399,-5.965 -13.399,-13.323C-13.399,-20.682 -7.4,-26.647 0,-26.647" style="fill:rgb(147,57,57);fill-rule:nonzero;"/>
    </g>
    <g transform="matrix(-1.05326,0,0,1.05326,941.935,629.648)">
        <path d="M0,-18.143C5.038,-18.143 9.123,-14.082 9.123,-9.072C9.123,-4.062 5.038,0 0,0C-5.038,0 -9.123,-4.062 -9.123,-9.072C-9.123,-14.082 -5.038,-18.143 0,-18.143" style="fill:rgb(147,57,57);fill-rule:nonzero;"/>
    </g>
    <g transform="matrix(1.05326,0,0,1.05326,516.185,491.762)">
        <path d="M0,-68.553C-7.814,-54.661 -15.628,-40.77 -23.442,-26.878C-19.832,-17.983 -16.223,-9.088 -12.613,-0.193C-7.844,-0.129 -3.074,-0.065 1.696,0C8.528,-6.059 15.36,-12.118 22.193,-18.177C24.771,-21.142 27.349,-24.106 29.927,-27.071C31.152,-30.23 32.377,-33.388 33.601,-36.546C32.763,-44.732 31.925,-52.918 31.088,-61.104C20.725,-63.587 10.362,-66.07 0,-68.553" style="fill:rgb(147,57,57);fill-rule:nonzero;"/>
    </g>
    <g transform="matrix(0,-1.05326,-1.05326,0,500.494,293.775)">
        <path d="M-14.825,-14.825C-22.966,-14.825 -29.566,-8.188 -29.566,-0.001C-29.566,8.188 -22.966,14.825 -14.825,14.825C-6.684,14.825 -0.084,8.188 -0.084,-0.001C-0.084,-8.188 -6.684,-14.825 -14.825,-14.825" style="fill:rgb(147,57,57);fill-rule:nonzero;"/>
    </g>
    <g transform="matrix(-1.05326,0,0,1.05326,1467.14,814.657)">
        <path d="M0,-28.348C7.872,-28.348 14.254,-22.002 14.254,-14.174C14.254,-6.346 7.872,0 0,0C-7.872,0 -14.254,-6.346 -14.254,-14.174C-14.254,-22.002 -7.872,-28.348 0,-28.348" style="fill:rgb(147,57,57);fill-rule:nonzero;"/>
    </g>
    <g transform="matrix(-1.05326,0,0,1.05326,1623.43,620.627)">
        <path d="M0,-28.348C7.872,-28.348 14.254,-22.002 14.254,-14.174C14.254,-6.346 7.872,0 0,0C-7.872,0 -14.254,-6.346 -14.254,-14.174C-14.254,-22.002 -7.872,-28.348 0,-28.348" style="fill:rgb(147,57,57);fill-rule:nonzero;"/>
    </g>
    <g transform="matrix(-1.05326,0,0,1.05326,1706.96,376.535)">
        <path d="M0,-28.348C7.872,-28.348 14.254,-22.002 14.254,-14.174C14.254,-6.346 7.872,0 0,0C-7.872,0 -14.254,-6.346 -14.254,-14.174C-14.254,-22.002 -7.872,-28.348 0,-28.348" style="fill:rgb(147,57,57);fill-rule:nonzero;"/>
    </g>
    <g transform="matrix(-1.05326,0,0,1.05326,1159.38,194.663)">
        <path d="M-0.001,-29.482C8.186,-29.482 14.824,-22.882 14.824,-14.741C14.824,-6.6 8.186,0 -0.001,0C-8.188,0 -14.825,-6.6 -14.825,-14.741C-14.825,-22.882 -8.188,-29.482 -0.001,-29.482" style="fill:rgb(147,57,57);fill-rule:nonzero;"/>
    </g>
    <g transform="matrix(1.29028,0,0,1.05326,-365.061,-141.618)">
        <path d="M970.508,760.149C969.63,760.149 968.818,759.974 968.071,759.625C967.324,759.275 966.676,758.779 966.127,758.137C965.578,757.495 965.151,756.738 964.845,755.867C964.54,754.995 964.387,754.037 964.387,752.993C964.387,751.949 964.54,750.991 964.845,750.119C965.151,749.248 965.58,748.491 966.132,747.849C966.684,747.206 967.334,746.71 968.08,746.361C968.827,746.012 969.64,745.837 970.518,745.837C971.497,745.837 972.383,746.044 973.177,746.459C973.971,746.875 974.635,747.483 975.169,748.284L973.494,750.187C973.108,749.648 972.678,749.242 972.203,748.966C971.728,748.69 971.208,748.553 970.644,748.553C970.115,748.553 969.631,748.66 969.192,748.874C968.752,749.088 968.371,749.392 968.048,749.787C967.726,750.181 967.476,750.651 967.298,751.195C967.12,751.739 967.031,752.338 967.031,752.993C967.031,753.648 967.12,754.247 967.298,754.791C967.476,755.335 967.726,755.804 968.048,756.199C968.371,756.594 968.752,756.898 969.192,757.112C969.631,757.326 970.115,757.433 970.644,757.433C971.208,757.433 971.728,757.295 972.203,757.02C972.678,756.744 973.108,756.333 973.494,755.787L975.169,757.69C974.635,758.486 973.971,759.095 973.177,759.516C972.383,759.938 971.494,760.149 970.508,760.149ZM982.658,754.24L982.658,759.916L980.036,759.916L980.036,746.07L982.658,746.07L982.658,751.536L987.785,751.536L987.785,746.07L990.407,746.07L990.407,759.916L987.785,759.916L987.785,754.24L982.658,754.24ZM996.202,759.916L996.202,746.07L998.824,746.07L998.824,759.916L996.202,759.916ZM1010.03,760.149C1009.16,760.149 1008.35,759.974 1007.6,759.625C1006.85,759.275 1006.2,758.779 1005.65,758.137C1005.11,757.495 1004.68,756.738 1004.37,755.867C1004.07,754.995 1003.91,754.037 1003.91,752.993C1003.91,751.949 1004.07,750.991 1004.37,750.119C1004.68,749.248 1005.11,748.491 1005.66,747.849C1006.21,747.206 1006.86,746.71 1007.61,746.361C1008.35,746.012 1009.17,745.837 1010.05,745.837C1011.02,745.837 1011.91,746.044 1012.7,746.459C1013.5,746.875 1014.16,747.483 1014.7,748.284L1013.02,750.187C1012.63,749.648 1012.21,749.242 1011.73,748.966C1011.25,748.69 1010.74,748.553 1010.17,748.553C1009.64,748.553 1009.16,748.66 1008.72,748.874C1008.28,749.088 1007.9,749.392 1007.58,749.787C1007.25,750.181 1007,750.651 1006.83,751.195C1006.65,751.739 1006.56,752.338 1006.56,752.993C1006.56,753.648 1006.65,754.247 1006.83,754.791C1007,755.335 1007.25,755.804 1007.58,756.199C1007.9,756.594 1008.28,756.898 1008.72,757.112C1009.16,757.326 1009.64,757.433 1010.17,757.433C1010.74,757.433 1011.25,757.295 1011.73,757.02C1012.21,756.744 1012.63,756.333 1013.02,755.787L1014.7,757.69C1014.16,758.486 1013.5,759.095 1012.7,759.516C1011.91,759.938 1011.02,760.149 1010.03,760.149ZM1022.19,754.24L1022.19,759.916L1019.56,759.916L1019.56,746.07L1022.19,746.07L1022.19,751.536L1027.31,751.536L1027.31,746.07L1029.93,746.07L1029.93,759.916L1027.31,759.916L1027.31,754.24L1022.19,754.24ZM1038.33,754.14L1038.33,757.344L1044.48,757.344L1044.48,759.916L1035.73,759.916L1035.73,746.07L1044.27,746.07L1044.27,748.641L1038.33,748.641L1038.33,751.648L1043.58,751.648L1043.58,754.14L1038.33,754.14ZM1038.54,744.942L1040.72,742.094L1043.43,742.094L1040.51,744.942L1038.54,744.942ZM1052.27,751.499L1052.27,759.916L1049.68,759.916L1049.68,746.07L1051.84,746.07L1057.47,754.487L1057.47,746.07L1060.05,746.07L1060.05,759.916L1057.9,759.916L1052.27,751.499ZM989.516,778.471L989.516,764.625L992.137,764.625L992.137,778.471L989.516,778.471ZM1000.59,778.471L1000.59,767.242L996.98,767.242L996.98,764.625L1006.83,764.625L1006.83,767.242L1003.22,767.242L1003.22,778.471L1000.59,778.471ZM1014.39,775.854L1020.82,775.854L1020.82,778.471L1010.94,778.471L1010.94,776.402L1017.15,767.242L1011.08,767.242L1011.08,764.625L1020.59,764.625L1020.59,766.693L1014.39,775.854ZM1028.14,775.504L1027.13,778.471L1024.45,778.471L1029.49,764.625L1032.08,764.625L1037.13,778.471L1034.38,778.471L1033.38,775.504L1028.14,775.504ZM1032.56,773.071L1030.77,767.772L1028.97,773.071L1032.56,773.071ZM1029.31,763.497L1031.49,760.649L1034.21,760.649L1031.28,763.497L1029.31,763.497Z" style="fill:rgb(148,57,57);"/>
    </g>
    <g transform="matrix(1.29472,0,0,1.05326,-284.592,-141.618)">
        <path d="M576.206,625.876L576.206,634.016L573.766,634.016L573.766,620.17L575.916,620.17L580.139,628.78L584.284,620.17L586.434,620.17L586.457,634.016L584.017,634.016L583.997,625.729L580.684,632.543L579.516,632.543L576.206,625.876ZM594.827,628.24L594.827,631.445L600.958,631.445L600.958,634.016L592.236,634.016L592.236,620.17L600.748,620.17L600.748,622.742L594.827,622.742L594.827,625.748L600.056,625.748L600.056,628.24L594.827,628.24ZM595.036,619.043L597.208,616.194L599.912,616.194L596.999,619.043L595.036,619.043ZM608.757,630.153L608.757,634.016L606.145,634.016L606.145,620.17L611.014,620.17C612.026,620.17 612.898,620.371 613.63,620.773C614.361,621.175 614.925,621.753 615.32,622.506C615.716,623.258 615.914,624.153 615.914,625.189C615.914,626.217 615.716,627.103 615.32,627.847C614.925,628.591 614.361,629.161 613.63,629.558C613.623,629.561 613.616,629.565 613.609,629.569L616.126,634.016L613.314,634.016L611.144,630.152C611.101,630.152 611.057,630.153 611.014,630.153L608.757,630.153ZM608.757,627.599L610.879,627.599C611.677,627.599 612.276,627.386 612.677,626.961C613.078,626.535 613.279,625.945 613.279,625.189C613.279,624.425 613.078,623.833 612.677,623.412C612.276,622.99 611.677,622.78 610.879,622.78L608.757,622.78L608.757,627.599ZM621.086,634.016L621.086,620.17L623.699,620.17L623.699,634.016L621.086,634.016ZM629.478,634.016L629.478,620.17L634.592,620.17C635.821,620.17 636.902,620.456 637.834,621.029C638.766,621.601 639.494,622.404 640.017,623.436C640.541,624.468 640.802,625.686 640.802,627.089C640.802,628.492 640.541,629.711 640.017,630.746C639.494,631.781 638.766,632.585 637.834,633.158C636.902,633.73 635.821,634.016 634.592,634.016L629.478,634.016ZM632.09,631.391L634.47,631.391C635.222,631.391 635.873,631.216 636.423,630.866C636.973,630.516 637.401,630.018 637.708,629.373C638.014,628.727 638.167,627.966 638.167,627.089C638.167,626.205 638.014,625.443 637.708,624.804C637.401,624.165 636.973,623.67 636.423,623.32C635.873,622.97 635.222,622.795 634.47,622.795L632.09,622.795L632.09,631.391ZM647.911,631.054L646.909,634.016L644.232,634.016L649.253,620.17L651.831,620.17L656.861,634.016L654.139,634.016L653.137,631.054L647.911,631.054ZM652.315,628.622L650.524,623.329L648.734,628.622L652.315,628.622Z" style="fill:rgb(148,57,57);"/>
    </g>
    <g transform="matrix(1.33718,0,0,1.05326,-290.28,-141.618)">
        <path d="M537.496,399.831L537.496,403.651L534.966,403.651L534.966,389.805L539.681,389.805C540.661,389.805 541.506,390.006 542.214,390.408C542.922,390.81 543.468,391.388 543.851,392.14C544.234,392.893 544.425,393.788 544.425,394.824C544.425,395.852 544.234,396.741 543.851,397.492C543.468,398.242 542.922,398.819 542.214,399.224C541.506,399.629 540.661,399.831 539.681,399.831L537.496,399.831ZM537.496,397.222L539.551,397.222C540.323,397.222 540.903,397.011 541.291,396.59C541.68,396.168 541.874,395.58 541.874,394.824C541.874,394.06 541.68,393.468 541.291,393.046C540.903,392.625 540.323,392.414 539.551,392.414L537.496,392.414L537.496,397.222ZM551.765,399.788L551.765,403.651L549.235,403.651L549.235,389.805L553.949,389.805C554.93,389.805 555.774,390.006 556.482,390.408C557.19,390.81 557.736,391.388 558.119,392.14C558.502,392.893 558.694,393.788 558.694,394.824C558.694,395.852 558.502,396.738 558.119,397.482C557.736,398.225 557.19,398.796 556.482,399.192C556.476,399.196 556.469,399.2 556.462,399.204L558.899,403.651L556.177,403.651L554.075,399.787C554.034,399.787 553.992,399.788 553.949,399.788L551.765,399.788ZM551.765,397.234L553.819,397.234C554.591,397.234 555.172,397.021 555.56,396.596C555.948,396.17 556.142,395.58 556.142,394.824C556.142,394.06 555.948,393.468 555.56,393.046C555.172,392.625 554.591,392.414 553.819,392.414L551.765,392.414L551.765,397.234ZM569.009,403.884C568.151,403.884 567.357,403.706 566.627,403.35C565.898,402.994 565.266,402.493 564.731,401.849C564.196,401.204 563.78,400.447 563.484,399.577C563.187,398.708 563.038,397.757 563.038,396.724C563.038,395.692 563.187,394.743 563.484,393.877C563.78,393.011 564.197,392.254 564.732,391.607C565.268,390.96 565.899,390.459 566.626,390.104C567.353,389.749 568.146,389.572 569.004,389.572C569.866,389.572 570.659,389.749 571.382,390.102C572.105,390.456 572.734,390.955 573.268,391.599C573.803,392.244 574.218,393 574.515,393.869C574.812,394.738 574.961,395.69 574.961,396.726C574.961,397.761 574.812,398.715 574.515,399.586C574.218,400.458 573.803,401.215 573.268,401.859C572.734,402.502 572.105,403 571.382,403.354C570.659,403.707 569.868,403.884 569.009,403.884ZM569.004,401.168C569.491,401.168 569.94,401.061 570.353,400.846C570.765,400.631 571.125,400.325 571.433,399.93C571.74,399.535 571.98,399.067 572.151,398.524C572.323,397.982 572.409,397.382 572.409,396.724C572.409,396.067 572.323,395.468 572.153,394.929C571.982,394.39 571.742,393.922 571.435,393.527C571.127,393.132 570.767,392.826 570.354,392.611C569.941,392.395 569.491,392.288 569.004,392.288C568.517,392.288 568.066,392.396 567.652,392.611C567.238,392.827 566.876,393.133 566.567,393.528C566.259,393.924 566.018,394.392 565.847,394.932C565.675,395.472 565.59,396.069 565.59,396.724C565.59,397.379 565.675,397.977 565.847,398.52C566.018,399.062 566.258,399.532 566.566,399.93C566.874,400.327 567.236,400.633 567.651,400.847C568.066,401.061 568.517,401.168 569.004,401.168ZM589.566,402.124C588.97,402.698 588.281,403.136 587.498,403.435C586.715,403.734 585.933,403.884 585.152,403.884C584.295,403.884 583.504,403.709 582.78,403.36C582.056,403.01 581.428,402.515 580.895,401.872C580.362,401.23 579.948,400.473 579.653,399.602C579.358,398.73 579.211,397.772 579.211,396.728C579.211,395.684 579.358,394.726 579.653,393.854C579.948,392.983 580.365,392.226 580.903,391.584C581.441,390.941 582.074,390.446 582.802,390.096C583.53,389.747 584.33,389.572 585.202,389.572C586.169,389.572 587.04,389.775 587.815,390.181C588.589,390.587 589.239,391.178 589.765,391.956L588.155,393.859C587.755,393.326 587.323,392.931 586.857,392.673C586.392,392.416 585.88,392.288 585.323,392.288C584.799,392.288 584.319,392.395 583.882,392.609C583.445,392.823 583.068,393.127 582.752,393.522C582.436,393.917 582.192,394.385 582.02,394.926C581.849,395.467 581.763,396.068 581.763,396.728C581.763,397.37 581.849,397.962 582.02,398.506C582.192,399.05 582.436,399.522 582.752,399.92C583.068,400.319 583.441,400.627 583.871,400.843C584.3,401.06 584.775,401.168 585.295,401.168C585.798,401.168 586.285,401.065 586.755,400.859C586.926,400.784 587.096,400.69 587.265,400.578L587.265,396.507L589.566,396.507L589.566,402.124ZM597.458,399.788L597.458,403.651L594.928,403.651L594.928,389.805L599.642,389.805C600.623,389.805 601.467,390.006 602.175,390.408C602.883,390.81 603.429,391.388 603.812,392.14C604.195,392.893 604.387,393.788 604.387,394.824C604.387,395.852 604.195,396.738 603.812,397.482C603.429,398.225 602.883,398.796 602.175,399.192C602.168,399.196 602.162,399.2 602.155,399.204L604.592,403.651L601.87,403.651L599.768,399.787C599.726,399.787 599.685,399.788 599.642,399.788L597.458,399.788ZM597.458,397.234L599.512,397.234C600.284,397.234 600.865,397.021 601.253,396.596C601.641,396.17 601.835,395.58 601.835,394.824C601.835,394.06 601.641,393.468 601.253,393.046C600.865,392.625 600.284,392.414 599.512,392.414L597.458,392.414L597.458,397.234ZM611.917,397.869L611.917,401.073L617.859,401.073L617.859,403.651L609.412,403.651L609.412,389.805L617.647,389.805L617.647,392.383L611.917,392.383L611.917,395.377L616.989,395.377L616.989,397.869L611.917,397.869ZM626.483,403.884C625.612,403.884 624.776,403.736 623.975,403.441C623.173,403.145 622.529,402.762 622.041,402.293L622.896,399.869C623.359,400.291 623.911,400.638 624.553,400.908C625.195,401.179 625.842,401.314 626.495,401.314C626.999,401.314 627.403,401.251 627.709,401.124C628.015,400.997 628.24,400.821 628.384,400.598C628.527,400.374 628.599,400.12 628.599,399.834C628.599,399.465 628.484,399.169 628.253,398.949C628.022,398.728 627.72,398.548 627.346,398.41C626.972,398.271 626.559,398.14 626.108,398.016C625.658,397.891 625.206,397.739 624.753,397.559C624.3,397.378 623.886,397.142 623.512,396.851C623.138,396.559 622.836,396.174 622.605,395.696C622.375,395.217 622.259,394.609 622.259,393.87C622.259,393.085 622.427,392.367 622.762,391.717C623.097,391.067 623.605,390.547 624.286,390.157C624.967,389.767 625.825,389.572 626.859,389.572C627.54,389.572 628.214,389.675 628.88,389.881C629.547,390.087 630.134,390.39 630.643,390.791L629.856,393.218C629.354,392.852 628.846,392.58 628.333,392.405C627.82,392.23 627.321,392.142 626.837,392.142C626.346,392.142 625.947,392.213 625.639,392.356C625.33,392.499 625.107,392.688 624.969,392.923C624.83,393.158 624.761,393.423 624.761,393.716C624.761,394.081 624.877,394.372 625.107,394.59C625.338,394.808 625.64,394.984 626.014,395.116C626.388,395.248 626.802,395.376 627.255,395.502C627.708,395.627 628.16,395.778 628.611,395.955C629.061,396.132 629.474,396.364 629.848,396.651C630.222,396.938 630.524,397.32 630.755,397.796C630.986,398.272 631.101,398.872 631.101,399.598C631.101,400.37 630.932,401.081 630.593,401.731C630.255,402.381 629.745,402.902 629.063,403.295C628.381,403.688 627.521,403.884 626.483,403.884ZM641.148,403.884C640.29,403.884 639.496,403.706 638.767,403.35C638.037,402.994 637.405,402.493 636.871,401.849C636.336,401.204 635.92,400.447 635.623,399.577C635.326,398.708 635.177,397.757 635.177,396.724C635.177,395.692 635.326,394.743 635.623,393.877C635.92,393.011 636.336,392.254 636.872,391.607C637.407,390.96 638.038,390.459 638.765,390.104C639.492,389.749 640.285,389.572 641.143,389.572C642.005,389.572 642.798,389.749 643.521,390.102C644.244,390.456 644.873,390.955 645.408,391.599C645.942,392.244 646.357,393 646.654,393.869C646.951,394.738 647.1,395.69 647.1,396.726C647.1,397.761 646.951,398.715 646.654,399.586C646.357,400.458 645.942,401.215 645.408,401.859C644.873,402.502 644.244,403 643.521,403.354C642.798,403.707 642.007,403.884 641.148,403.884ZM641.143,401.168C641.63,401.168 642.08,401.061 642.492,400.846C642.905,400.631 643.265,400.325 643.572,399.93C643.88,399.535 644.119,399.067 644.291,398.524C644.462,397.982 644.548,397.382 644.548,396.724C644.548,396.067 644.463,395.468 644.292,394.929C644.121,394.39 643.882,393.922 643.574,393.527C643.266,393.132 642.906,392.826 642.493,392.611C642.081,392.395 641.631,392.288 641.143,392.288C640.656,392.288 640.206,392.396 639.791,392.611C639.377,392.827 639.015,393.133 638.707,393.528C638.398,393.924 638.158,394.392 637.986,394.932C637.815,395.472 637.729,396.069 637.729,396.724C637.729,397.379 637.815,397.977 637.986,398.52C638.157,399.062 638.397,399.532 638.705,399.93C639.013,400.327 639.375,400.633 639.79,400.847C640.205,401.061 640.656,401.168 641.143,401.168Z" style="fill:rgb(148,57,57);"/>
    </g>
    <g transform="matrix(1.40878,0,0,1.05326,-392.422,-141.384)">
        <path d="M710.352,372.505L710.352,361.276L707.043,361.276L707.043,358.659L716.061,358.659L716.061,361.276L712.753,361.276L712.753,372.505L710.352,372.505ZM722.744,366.722L722.744,369.927L728.384,369.927L728.384,372.505L720.366,372.505L720.366,358.659L728.183,358.659L728.183,361.237L722.744,361.237L722.744,364.231L727.559,364.231L727.559,366.722L722.744,366.722ZM733.311,372.505L733.311,358.659L735.712,358.659L735.712,369.888L740.894,369.888L740.894,372.505L733.311,372.505ZM750.006,372.738C749.201,372.738 748.457,372.563 747.773,372.214C747.089,371.864 746.496,371.368 745.993,370.726C745.49,370.084 745.099,369.327 744.819,368.455C744.539,367.584 744.399,366.626 744.399,365.582C744.399,364.537 744.539,363.58 744.819,362.708C745.099,361.836 745.492,361.08 745.997,360.437C746.503,359.795 747.098,359.299 747.782,358.95C748.466,358.6 749.21,358.426 750.015,358.426C750.911,358.426 751.723,358.633 752.45,359.048C753.178,359.463 753.786,360.072 754.274,360.873L752.74,362.775C752.387,362.237 751.993,361.83 751.558,361.555C751.123,361.279 750.647,361.141 750.13,361.141C749.646,361.141 749.202,361.248 748.8,361.462C748.397,361.676 748.048,361.981 747.753,362.375C747.457,362.77 747.228,363.24 747.065,363.784C746.903,364.327 746.821,364.927 746.821,365.582C746.821,366.236 746.903,366.836 747.065,367.38C747.228,367.924 747.457,368.393 747.753,368.788C748.048,369.183 748.397,369.487 748.8,369.701C749.202,369.915 749.646,370.022 750.13,370.022C750.647,370.022 751.123,369.884 751.558,369.609C751.993,369.333 752.387,368.922 752.74,368.376L754.274,370.279C753.786,371.075 753.178,371.684 752.45,372.105C751.723,372.527 750.908,372.738 750.006,372.738ZM761.298,366.828L761.298,372.505L758.897,372.505L758.897,358.659L761.298,358.659L761.298,364.125L765.994,364.125L765.994,358.659L768.396,358.659L768.396,372.505L765.994,372.505L765.994,366.828L761.298,366.828ZM775.885,369.543L774.964,372.505L772.503,372.505L777.118,358.659L779.487,358.659L784.11,372.505L781.608,372.505L780.687,369.543L775.885,369.543ZM779.932,367.111L778.286,361.818L776.641,367.111L779.932,367.111ZM793.03,372.738C792.226,372.738 791.482,372.563 790.798,372.214C790.114,371.864 789.52,371.368 789.017,370.726C788.515,370.084 788.123,369.327 787.844,368.455C787.564,367.584 787.424,366.626 787.424,365.582C787.424,364.537 787.564,363.58 787.844,362.708C788.123,361.836 788.516,361.08 789.022,360.437C789.528,359.795 790.123,359.299 790.807,358.95C791.491,358.6 792.235,358.426 793.039,358.426C793.936,358.426 794.748,358.633 795.475,359.048C796.202,359.463 796.81,360.072 797.299,360.873L795.765,362.775C795.412,362.237 795.018,361.83 794.582,361.555C794.147,361.279 793.671,361.141 793.154,361.141C792.671,361.141 792.227,361.248 791.824,361.462C791.422,361.676 791.072,361.981 790.777,362.375C790.482,362.77 790.253,363.24 790.09,363.784C789.927,364.327 789.846,364.927 789.846,365.582C789.846,366.236 789.927,366.836 790.09,367.38C790.253,367.924 790.482,368.393 790.777,368.788C791.072,369.183 791.422,369.487 791.824,369.701C792.227,369.915 792.671,370.022 793.154,370.022C793.671,370.022 794.147,369.884 794.582,369.609C795.018,369.333 795.412,368.922 795.765,368.376L797.299,370.279C796.81,371.075 796.202,371.684 795.475,372.105C794.748,372.527 793.933,372.738 793.03,372.738Z" style="fill:rgb(148,57,57);"/>
    </g>
    <g transform="matrix(1.34032,0,0,1.05326,-372.61,-141.618)">
        <rect x="826.114" y="527.118" width="2.524" height="13.846" style="fill:rgb(148,57,57);fill-rule:nonzero;"/>
        <path d="M833.81,540.964L833.81,538.895L840.547,528.567L840.848,529.735L833.937,529.735L833.937,527.118L843.096,527.118L843.096,529.186L836.368,539.515L836.058,538.347L843.317,538.347L843.317,540.964L833.81,540.964Z" style="fill:rgb(148,57,57);fill-rule:nonzero;"/>
        <path d="M846.791,540.964L851.641,527.118L854.131,527.118L858.99,540.964L856.361,540.964L852.37,528.748L853.368,528.748L849.377,540.964L846.791,540.964ZM849.226,538.002L849.887,535.57L855.492,535.57L856.162,538.002L849.226,538.002Z" style="fill:rgb(148,57,57);fill-rule:nonzero;"/>
        <path d="M863.427,540.964L863.427,527.118L865.504,527.118L870.138,536.897L869.04,536.897L873.587,527.118L875.664,527.118L875.686,540.964L873.329,540.964L873.307,531.736L873.751,531.736L870.11,539.491L868.981,539.491L865.262,531.736L865.784,531.736L865.784,540.964L863.427,540.964Z" style="fill:rgb(148,57,57);fill-rule:nonzero;"/>
        <path d="M880.122,540.964L884.972,527.118L887.462,527.118L892.322,540.964L889.692,540.964L885.701,528.748L886.699,528.748L882.708,540.964L880.122,540.964ZM882.557,538.002L883.218,535.57L888.823,535.57L889.493,538.002L882.557,538.002Z" style="fill:rgb(148,57,57);fill-rule:nonzero;"/>
        <path d="M896.758,540.964L896.758,527.118L899.282,527.118L899.282,538.347L904.728,538.347L904.728,540.964L896.758,540.964Z" style="fill:rgb(148,57,57);fill-rule:nonzero;"/>
    </g>
    <g transform="matrix(1.39551,0,0,1.05326,-545.495,-141.618)">
        <path d="M1206.99,258.454L1206.99,262.317L1204.57,262.317L1204.57,248.471L1209.09,248.471C1210.03,248.471 1210.84,248.672 1211.51,249.074C1212.19,249.477 1212.71,250.054 1213.08,250.807C1213.45,251.559 1213.63,252.454 1213.63,253.49C1213.63,254.518 1213.45,255.404 1213.08,256.148C1212.71,256.892 1212.19,257.462 1211.51,257.859C1211.51,257.862 1211.5,257.866 1211.5,257.87L1213.83,262.317L1211.22,262.317L1209.21,258.453C1209.17,258.454 1209.13,258.454 1209.09,258.454L1206.99,258.454ZM1206.99,255.9L1208.96,255.9C1209.7,255.9 1210.26,255.687 1210.63,255.262C1211,254.836 1211.19,254.246 1211.19,253.49C1211.19,252.727 1211,252.134 1210.63,251.713C1210.26,251.291 1209.7,251.081 1208.96,251.081L1206.99,251.081L1206.99,255.9ZM1218.59,262.317L1218.59,248.471L1221.01,248.471L1221.01,262.317L1218.59,262.317ZM1218.44,247.344L1220.45,244.496L1222.96,244.496L1220.26,247.344L1218.44,247.344ZM1231.59,262.55C1230.77,262.55 1230.01,262.372 1229.31,262.016C1228.61,261.66 1228.01,261.16 1227.5,260.515C1226.98,259.87 1226.58,259.113 1226.3,258.243C1226.01,257.374 1225.87,256.423 1225.87,255.391C1225.87,254.358 1226.01,253.409 1226.3,252.543C1226.58,251.677 1226.98,250.921 1227.5,250.274C1228.01,249.627 1228.61,249.126 1229.31,248.771C1230.01,248.416 1230.77,248.238 1231.59,248.238C1232.41,248.238 1233.17,248.415 1233.87,248.768C1234.56,249.122 1235.16,249.621 1235.67,250.265C1236.19,250.91 1236.59,251.666 1236.87,252.535C1237.15,253.404 1237.3,254.356 1237.3,255.392C1237.3,256.428 1237.15,257.381 1236.87,258.253C1236.59,259.124 1236.19,259.881 1235.67,260.525C1235.16,261.168 1234.56,261.667 1233.87,262.02C1233.17,262.374 1232.42,262.55 1231.59,262.55ZM1231.59,259.835C1232.06,259.835 1232.49,259.727 1232.88,259.512C1233.28,259.297 1233.62,258.992 1233.92,258.597C1234.21,258.202 1234.44,257.733 1234.61,257.191C1234.77,256.648 1234.85,256.048 1234.85,255.391C1234.85,254.733 1234.77,254.135 1234.61,253.595C1234.44,253.056 1234.21,252.589 1233.92,252.193C1233.62,251.798 1233.28,251.493 1232.88,251.277C1232.49,251.062 1232.06,250.954 1231.59,250.954C1231.12,250.954 1230.69,251.062 1230.29,251.277C1229.9,251.493 1229.55,251.799 1229.25,252.195C1228.96,252.591 1228.73,253.059 1228.56,253.598C1228.4,254.138 1228.32,254.736 1228.32,255.39C1228.32,256.045 1228.4,256.644 1228.56,257.186C1228.73,257.728 1228.96,258.198 1229.25,258.596C1229.55,258.994 1229.89,259.3 1230.29,259.514C1230.69,259.728 1231.12,259.835 1231.59,259.835ZM1168.34,280.872L1168.34,267.026L1170.76,267.026L1170.76,278.255L1176,278.255L1176,280.872L1168.34,280.872ZM1182.5,277.91L1181.57,280.872L1179.09,280.872L1183.75,267.026L1186.14,267.026L1190.81,280.872L1188.28,280.872L1187.35,277.91L1182.5,277.91ZM1186.59,275.478L1184.93,270.185L1183.27,275.478L1186.59,275.478ZM1204.13,279.345C1203.56,279.92 1202.9,280.357 1202.15,280.656C1201.4,280.955 1200.65,281.105 1199.9,281.105C1199.08,281.105 1198.32,280.93 1197.63,280.581C1196.93,280.232 1196.33,279.736 1195.82,279.093C1195.31,278.451 1194.91,277.694 1194.63,276.823C1194.35,275.951 1194.21,274.993 1194.21,273.949C1194.21,272.905 1194.35,271.947 1194.63,271.076C1194.91,270.204 1195.31,269.447 1195.83,268.805C1196.35,268.163 1196.95,267.667 1197.65,267.317C1198.35,266.968 1199.11,266.793 1199.95,266.793C1200.88,266.793 1201.71,266.996 1202.45,267.402C1203.19,267.808 1203.82,268.4 1204.32,269.177L1202.78,271.08C1202.4,270.547 1201.98,270.152 1201.54,269.895C1201.09,269.637 1200.6,269.509 1200.07,269.509C1199.56,269.509 1199.1,269.616 1198.68,269.83C1198.27,270.044 1197.9,270.348 1197.6,270.743C1197.3,271.138 1197.07,271.606 1196.9,272.147C1196.74,272.689 1196.65,273.289 1196.65,273.949C1196.65,274.591 1196.74,275.184 1196.9,275.727C1197.07,276.271 1197.3,276.743 1197.6,277.142C1197.9,277.54 1198.26,277.848 1198.67,278.065C1199.09,278.281 1199.54,278.389 1200.04,278.389C1200.52,278.389 1200.99,278.286 1201.44,278.081C1201.6,278.006 1201.76,277.912 1201.93,277.799L1201.93,273.728L1204.13,273.728L1204.13,279.345ZM1211.51,277.91L1210.58,280.872L1208.1,280.872L1212.75,267.026L1215.14,267.026L1219.81,280.872L1217.29,280.872L1216.36,277.91L1211.51,277.91ZM1215.59,275.478L1213.93,270.185L1212.27,275.478L1215.59,275.478ZM1226.44,277.009L1226.44,280.872L1224.02,280.872L1224.02,267.026L1228.53,267.026C1229.47,267.026 1230.28,267.227 1230.96,267.629C1231.64,268.031 1232.16,268.609 1232.53,269.362C1232.9,270.114 1233.08,271.009 1233.08,272.045C1233.08,273.073 1232.9,273.959 1232.53,274.703C1232.16,275.447 1231.64,276.017 1230.96,276.414C1230.95,276.417 1230.95,276.421 1230.94,276.425L1233.28,280.872L1230.67,280.872L1228.65,277.008C1228.62,277.009 1228.57,277.009 1228.53,277.009L1226.44,277.009ZM1226.44,274.455L1228.41,274.455C1229.15,274.455 1229.7,274.242 1230.08,273.817C1230.45,273.391 1230.63,272.801 1230.63,272.045C1230.63,271.281 1230.45,270.689 1230.08,270.268C1229.7,269.846 1229.15,269.636 1228.41,269.636L1226.44,269.636L1226.44,274.455ZM1240.11,280.872L1240.11,269.643L1236.77,269.643L1236.77,267.026L1245.88,267.026L1245.88,269.643L1242.54,269.643L1242.54,280.872L1240.11,280.872ZM1255.2,281.105C1254.38,281.105 1253.62,280.927 1252.92,280.571C1252.22,280.215 1251.61,279.715 1251.1,279.07C1250.59,278.425 1250.19,277.668 1249.9,276.798C1249.62,275.929 1249.48,274.978 1249.48,273.945C1249.48,272.913 1249.62,271.964 1249.9,271.098C1250.19,270.232 1250.59,269.476 1251.1,268.828C1251.61,268.181 1252.22,267.68 1252.91,267.326C1253.61,266.971 1254.37,266.793 1255.19,266.793C1256.02,266.793 1256.78,266.97 1257.47,267.323C1258.16,267.677 1258.77,268.176 1259.28,268.82C1259.79,269.465 1260.19,270.221 1260.47,271.09C1260.76,271.959 1260.9,272.911 1260.9,273.947C1260.9,274.982 1260.76,275.936 1260.47,276.808C1260.19,277.679 1259.79,278.436 1259.28,279.08C1258.77,279.723 1258.16,280.222 1257.47,280.575C1256.78,280.928 1256.02,281.105 1255.2,281.105ZM1255.19,278.389C1255.66,278.389 1256.09,278.282 1256.49,278.067C1256.88,277.852 1257.23,277.547 1257.52,277.152C1257.82,276.757 1258.05,276.288 1258.21,275.746C1258.37,275.203 1258.46,274.603 1258.46,273.945C1258.46,273.288 1258.37,272.69 1258.21,272.15C1258.05,271.611 1257.82,271.144 1257.52,270.748C1257.23,270.353 1256.88,270.047 1256.49,269.832C1256.09,269.617 1255.66,269.509 1255.19,269.509C1254.73,269.509 1254.3,269.617 1253.9,269.832C1253.5,270.048 1253.15,270.354 1252.86,270.75C1252.56,271.146 1252.33,271.613 1252.17,272.153C1252,272.693 1251.92,273.291 1251.92,273.945C1251.92,274.6 1252,275.198 1252.17,275.741C1252.33,276.283 1252.56,276.753 1252.86,277.151C1253.15,277.549 1253.5,277.855 1253.9,278.068C1254.29,278.282 1254.73,278.389 1255.19,278.389ZM1269.27,281.105C1268.43,281.105 1267.63,280.957 1266.87,280.662C1266.1,280.366 1265.48,279.984 1265.01,279.514L1265.83,277.09C1266.28,277.513 1266.8,277.859 1267.42,278.13C1268.03,278.4 1268.65,278.535 1269.28,278.535C1269.76,278.535 1270.15,278.472 1270.44,278.345C1270.74,278.218 1270.95,278.043 1271.09,277.819C1271.23,277.596 1271.3,277.341 1271.3,277.056C1271.3,276.686 1271.18,276.39 1270.96,276.17C1270.74,275.949 1270.45,275.769 1270.1,275.631C1269.74,275.492 1269.34,275.361 1268.91,275.237C1268.48,275.113 1268.04,274.96 1267.61,274.78C1267.18,274.599 1266.78,274.363 1266.42,274.072C1266.06,273.781 1265.77,273.396 1265.55,272.917C1265.33,272.438 1265.22,271.83 1265.22,271.091C1265.22,270.306 1265.38,269.588 1265.7,268.938C1266.02,268.288 1266.51,267.768 1267.16,267.378C1267.82,266.988 1268.64,266.793 1269.63,266.793C1270.28,266.793 1270.93,266.896 1271.57,267.102C1272.2,267.308 1272.77,267.611 1273.25,268.012L1272.5,270.439C1272.02,270.073 1271.53,269.802 1271.04,269.626C1270.55,269.451 1270.07,269.363 1269.61,269.363C1269.14,269.363 1268.75,269.434 1268.46,269.577C1268.16,269.72 1267.95,269.909 1267.82,270.144C1267.68,270.38 1267.62,270.644 1267.62,270.937C1267.62,271.302 1267.73,271.593 1267.95,271.812C1268.17,272.03 1268.46,272.205 1268.82,272.337C1269.18,272.469 1269.57,272.598 1270.01,272.723C1270.44,272.848 1270.88,272.999 1271.31,273.176C1271.74,273.353 1272.13,273.585 1272.49,273.872C1272.85,274.159 1273.14,274.541 1273.36,275.017C1273.58,275.493 1273.69,276.094 1273.69,276.819C1273.69,277.591 1273.53,278.302 1273.21,278.952C1272.88,279.602 1272.39,280.123 1271.74,280.516C1271.09,280.909 1270.26,281.105 1269.27,281.105Z" style="fill:rgb(148,57,57);"/>
    </g>
    <g transform="matrix(1.38274,0,0,1.05326,-589.609,-141.618)">
        <path d="M1366.31,298.909L1366.31,302.113L1372.05,302.113L1372.05,304.691L1363.88,304.691L1363.88,290.845L1371.85,290.845L1371.85,293.423L1366.31,293.423L1366.31,296.417L1371.21,296.417L1371.21,298.909L1366.31,298.909ZM1376.99,304.691L1376.99,290.845L1379.43,290.845L1379.43,302.074L1384.71,302.074L1384.71,304.691L1376.99,304.691ZM1401.39,304.924C1400.57,304.924 1399.81,304.749 1399.12,304.4C1398.42,304.05 1397.81,303.555 1397.3,302.912C1396.79,302.27 1396.39,301.513 1396.11,300.642C1395.82,299.77 1395.68,298.812 1395.68,297.768C1395.68,296.724 1395.82,295.766 1396.11,294.894C1396.39,294.023 1396.79,293.266 1397.31,292.624C1397.82,291.982 1398.43,291.486 1399.12,291.136C1399.82,290.787 1400.58,290.612 1401.4,290.612C1402.31,290.612 1403.14,290.82 1403.88,291.235C1404.62,291.65 1405.24,292.258 1405.74,293.059L1404.18,294.962C1403.82,294.424 1403.41,294.017 1402.97,293.741C1402.53,293.466 1402.04,293.328 1401.52,293.328C1401.02,293.328 1400.57,293.435 1400.16,293.649C1399.75,293.863 1399.39,294.167 1399.09,294.562C1398.79,294.957 1398.56,295.426 1398.39,295.97C1398.23,296.514 1398.14,297.113 1398.14,297.768C1398.14,298.423 1398.23,299.022 1398.39,299.566C1398.56,300.11 1398.79,300.58 1399.09,300.974C1399.39,301.369 1399.75,301.673 1400.16,301.887C1400.57,302.101 1401.02,302.208 1401.52,302.208C1402.04,302.208 1402.53,302.071 1402.97,301.795C1403.41,301.519 1403.82,301.109 1404.18,300.562L1405.74,302.465C1405.24,303.261 1404.62,303.87 1403.88,304.292C1403.14,304.713 1402.31,304.924 1401.39,304.924ZM1415.05,304.924C1413.55,304.924 1412.38,304.378 1411.54,303.287C1410.69,302.195 1410.27,300.63 1410.27,298.592L1410.27,290.845L1412.72,290.845L1412.72,298.489C1412.72,299.799 1412.92,300.746 1413.34,301.331C1413.75,301.916 1414.33,302.208 1415.07,302.208C1415.81,302.208 1416.39,301.916 1416.8,301.331C1417.21,300.746 1417.41,299.799 1417.41,298.489L1417.41,290.845L1419.82,290.845L1419.82,298.592C1419.82,300.63 1419.4,302.195 1418.55,303.287C1417.71,304.378 1416.54,304.924 1415.05,304.924ZM1427.69,299.758L1423.6,290.845L1426.2,290.845L1429.01,296.993L1431.83,290.845L1434.22,290.845L1430.13,299.782L1430.13,304.691L1427.69,304.691L1427.69,299.758ZM1442.91,304.924C1442.08,304.924 1441.31,304.746 1440.61,304.39C1439.9,304.034 1439.29,303.534 1438.77,302.889C1438.25,302.244 1437.85,301.487 1437.56,300.617C1437.28,299.748 1437.13,298.797 1437.13,297.764C1437.13,296.732 1437.28,295.783 1437.56,294.917C1437.85,294.051 1438.25,293.294 1438.77,292.647C1439.29,292 1439.9,291.499 1440.6,291.144C1441.31,290.79 1442.07,290.612 1442.9,290.612C1443.74,290.612 1444.5,290.789 1445.2,291.142C1445.9,291.496 1446.51,291.995 1447.03,292.639C1447.54,293.284 1447.94,294.04 1448.23,294.909C1448.52,295.778 1448.66,296.73 1448.66,297.766C1448.66,298.801 1448.52,299.755 1448.23,300.626C1447.94,301.498 1447.54,302.255 1447.03,302.899C1446.51,303.542 1445.9,304.04 1445.2,304.394C1444.5,304.747 1443.74,304.924 1442.91,304.924ZM1442.9,302.208C1443.37,302.208 1443.81,302.101 1444.21,301.886C1444.61,301.671 1444.95,301.366 1445.25,300.971C1445.55,300.576 1445.78,300.107 1445.95,299.565C1446.11,299.022 1446.2,298.422 1446.2,297.764C1446.2,297.107 1446.11,296.509 1445.95,295.969C1445.78,295.43 1445.55,294.963 1445.25,294.567C1444.96,294.172 1444.61,293.866 1444.21,293.651C1443.81,293.436 1443.37,293.328 1442.9,293.328C1442.43,293.328 1442,293.436 1441.6,293.651C1441.19,293.867 1440.85,294.173 1440.55,294.569C1440.25,294.964 1440.02,295.432 1439.85,295.972C1439.68,296.512 1439.6,297.109 1439.6,297.764C1439.6,298.419 1439.68,299.017 1439.85,299.56C1440.02,300.102 1440.25,300.572 1440.55,300.97C1440.84,301.368 1441.19,301.673 1441.59,301.887C1442,302.101 1442.43,302.208 1442.9,302.208Z" style="fill:rgb(148,57,57);"/>
    </g>
    <g transform="matrix(1.40887,0,0,1.05326,-743.858,-141.618)">
        <path d="M1705.25,452.15C1704.44,452.15 1703.7,451.975 1703.02,451.626C1702.33,451.276 1701.74,450.78 1701.24,450.138C1700.73,449.496 1700.34,448.739 1700.06,447.868C1699.78,446.996 1699.64,446.038 1699.64,444.994C1699.64,443.95 1699.78,442.992 1700.06,442.12C1700.34,441.249 1700.74,440.492 1701.24,439.85C1701.75,439.207 1702.34,438.712 1703.03,438.362C1703.71,438.013 1704.45,437.838 1705.26,437.838C1706.15,437.838 1706.97,438.045 1707.69,438.461C1708.42,438.876 1709.03,439.484 1709.52,440.285L1707.98,442.188C1707.63,441.649 1707.24,441.243 1706.8,440.967C1706.37,440.691 1705.89,440.554 1705.37,440.554C1704.89,440.554 1704.45,440.661 1704.04,440.875C1703.64,441.089 1703.29,441.393 1703,441.788C1702.7,442.183 1702.47,442.652 1702.31,443.196C1702.15,443.74 1702.07,444.339 1702.07,444.994C1702.07,445.649 1702.15,446.248 1702.31,446.792C1702.47,447.336 1702.7,447.805 1703,448.2C1703.29,448.595 1703.64,448.899 1704.04,449.113C1704.45,449.327 1704.89,449.434 1705.37,449.434C1705.89,449.434 1706.37,449.296 1706.8,449.021C1707.24,448.745 1707.63,448.334 1707.98,447.788L1709.52,449.691C1709.03,450.487 1708.42,451.096 1707.69,451.517C1706.97,451.939 1706.15,452.15 1705.25,452.15ZM1715.78,448.955L1714.86,451.917L1712.4,451.917L1717.01,438.071L1719.38,438.071L1724.01,451.917L1721.5,451.917L1720.58,448.955L1715.78,448.955ZM1719.83,446.523L1718.18,441.23L1716.54,446.523L1719.83,446.523ZM1730.4,443.5L1730.4,451.917L1728.03,451.917L1728.03,438.071L1730.01,438.071L1735.17,446.488L1735.17,438.071L1737.53,438.071L1737.53,451.917L1735.56,451.917L1730.4,443.5ZM1747.89,452.15C1747.08,452.15 1746.34,451.975 1745.65,451.626C1744.97,451.276 1744.38,450.78 1743.87,450.138C1743.37,449.496 1742.98,448.739 1742.7,447.868C1742.42,446.996 1742.28,446.038 1742.28,444.994C1742.28,443.95 1742.42,442.992 1742.7,442.12C1742.98,441.249 1743.37,440.492 1743.88,439.85C1744.38,439.207 1744.98,438.712 1745.66,438.362C1746.35,438.013 1747.09,437.838 1747.89,437.838C1748.79,437.838 1749.6,438.045 1750.33,438.461C1751.06,438.876 1751.66,439.484 1752.15,440.285L1750.62,442.188C1750.27,441.649 1749.87,441.243 1749.44,440.967C1749,440.691 1748.53,440.554 1748.01,440.554C1747.53,440.554 1747.08,440.661 1746.68,440.875C1746.28,441.089 1745.93,441.393 1745.63,441.788C1745.34,442.183 1745.11,442.652 1744.95,443.196C1744.78,443.74 1744.7,444.339 1744.7,444.994C1744.7,445.649 1744.78,446.248 1744.95,446.792C1745.11,447.336 1745.34,447.805 1745.63,448.2C1745.93,448.595 1746.28,448.899 1746.68,449.113C1747.08,449.327 1747.53,449.434 1748.01,449.434C1748.53,449.434 1749,449.296 1749.44,449.021C1749.87,448.745 1750.27,448.334 1750.62,447.788L1752.15,449.691C1751.66,450.487 1751.06,451.096 1750.33,451.517C1749.6,451.939 1748.79,452.15 1747.89,452.15ZM1761.3,452.154C1759.83,452.154 1758.68,451.607 1757.85,450.513C1757.02,449.418 1756.61,447.855 1756.61,445.825L1756.61,438.071L1759.01,438.071L1759.01,445.706C1759.01,447.025 1759.21,447.974 1759.61,448.554C1760.02,449.135 1760.58,449.425 1761.31,449.425C1762.04,449.425 1762.61,449.135 1763.01,448.554C1763.42,447.974 1763.62,447.025 1763.62,445.706L1763.62,438.071L1765.98,438.071L1765.98,445.825C1765.98,447.855 1765.57,449.418 1764.74,450.513C1763.91,451.607 1762.77,452.154 1761.3,452.154ZM1759.97,436.943L1761.96,434.095L1764.45,434.095L1761.77,436.943L1759.97,436.943ZM1773.65,443.5L1773.65,451.917L1771.28,451.917L1771.28,438.071L1773.26,438.071L1778.42,446.488L1778.42,438.071L1780.78,438.071L1780.78,451.917L1778.81,451.917L1773.65,443.5Z" style="fill:rgb(148,57,57);"/>
    </g>
    <g transform="matrix(0.942629,0,0,1.88128,68.6176,-706.534)">
        <path d="M1686.84,699.17L1686.84,701.308L1683.25,701.308L1683.25,693.557L1689.94,693.557C1691.33,693.557 1692.52,693.669 1693.53,693.894C1694.53,694.119 1695.31,694.443 1695.85,694.864C1696.39,695.286 1696.67,695.786 1696.67,696.366C1696.67,696.942 1696.39,697.44 1695.85,697.86C1695.31,698.28 1694.53,698.603 1693.53,698.83C1692.52,699.056 1691.33,699.17 1689.94,699.17L1686.84,699.17ZM1686.84,697.709L1689.75,697.709C1690.85,697.709 1691.67,697.591 1692.22,697.355C1692.77,697.119 1693.05,696.79 1693.05,696.366C1693.05,695.939 1692.77,695.607 1692.22,695.371C1691.67,695.135 1690.85,695.018 1689.75,695.018L1686.84,695.018L1686.84,697.709ZM1704.3,701.308L1704.3,693.557L1707.89,693.557L1707.89,699.843L1715.64,699.843L1715.64,701.308L1704.3,701.308ZM1725.83,699.65L1724.45,701.308L1720.77,701.308L1727.67,693.557L1731.21,693.557L1738.12,701.308L1734.38,701.308L1733,699.65L1725.83,699.65ZM1731.87,698.289L1729.41,695.325L1726.95,698.289L1731.87,698.289ZM1745.13,698.547L1739.14,693.557L1742.95,693.557L1747.07,696.999L1751.21,693.557L1754.71,693.557L1748.72,698.56L1748.72,701.308L1745.13,701.308L1745.13,698.547ZM1760.79,699.65L1759.41,701.308L1755.73,701.308L1762.63,693.557L1766.17,693.557L1773.08,701.308L1769.34,701.308L1767.96,699.65L1760.79,699.65ZM1766.84,698.289L1764.38,695.325L1761.92,698.289L1766.84,698.289ZM1683.25,711.697L1683.25,703.945L1690.27,703.945C1691.96,703.945 1693.44,704.105 1694.73,704.425C1696.01,704.746 1697.01,705.195 1697.72,705.773C1698.44,706.351 1698.8,707.033 1698.8,707.818C1698.8,708.604 1698.44,709.286 1697.72,709.866C1697.01,710.445 1696.01,710.895 1694.73,711.216C1693.44,711.536 1691.96,711.697 1690.27,711.697L1683.25,711.697ZM1686.84,710.227L1690.11,710.227C1691.14,710.227 1692.03,710.129 1692.79,709.933C1693.54,709.737 1694.13,709.458 1694.55,709.097C1694.97,708.735 1695.18,708.309 1695.18,707.818C1695.18,707.323 1694.97,706.897 1694.55,706.539C1694.13,706.181 1693.54,705.904 1692.79,705.708C1692.03,705.512 1691.14,705.414 1690.11,705.414L1686.84,705.414L1686.84,710.227ZM1709.41,708.459L1709.41,710.253L1717.84,710.253L1717.84,711.697L1705.86,711.697L1705.86,703.945L1717.54,703.945L1717.54,705.388L1709.41,705.388L1709.41,707.065L1716.6,707.065L1716.6,708.459L1709.41,708.459ZM1725.04,711.697L1725.04,703.945L1728.63,703.945L1728.63,710.231L1736.37,710.231L1736.37,711.697L1725.04,711.697ZM1690.66,722.215C1689.46,722.215 1688.35,722.117 1687.33,721.922C1686.3,721.726 1685.42,721.448 1684.66,721.089C1683.91,720.729 1683.33,720.306 1682.91,719.818C1682.49,719.33 1682.28,718.793 1682.28,718.209C1682.28,717.624 1682.49,717.088 1682.91,716.6C1683.33,716.112 1683.92,715.688 1684.67,715.329C1685.43,714.969 1686.32,714.692 1687.34,714.496C1688.36,714.3 1689.47,714.202 1690.67,714.202C1692.02,714.202 1693.23,714.319 1694.32,714.551C1695.4,714.783 1696.31,715.124 1697.04,715.573L1694.75,716.638C1694.22,716.336 1693.63,716.109 1692.98,715.954C1692.33,715.8 1691.62,715.723 1690.85,715.723C1690.12,715.723 1689.46,715.783 1688.86,715.903C1688.26,716.022 1687.74,716.193 1687.3,716.414C1686.85,716.635 1686.51,716.898 1686.27,717.202C1686.02,717.507 1685.9,717.842 1685.9,718.209C1685.9,718.575 1686.02,718.911 1686.27,719.216C1686.51,719.52 1686.85,719.783 1687.3,720.004C1687.74,720.225 1688.26,720.395 1688.86,720.515C1689.46,720.635 1690.12,720.695 1690.85,720.695C1691.62,720.695 1692.33,720.618 1692.98,720.463C1693.63,720.309 1694.22,720.079 1694.75,719.773L1697.04,720.839C1696.31,721.284 1695.4,721.625 1694.32,721.861C1693.23,722.097 1692.01,722.215 1690.66,722.215ZM1706.36,720.426L1704.99,722.085L1701.31,722.085L1708.2,714.333L1711.75,714.333L1718.65,722.085L1714.91,722.085L1713.54,720.426L1706.36,720.426ZM1712.41,719.065L1709.95,716.101L1707.49,719.065L1712.41,719.065ZM1728.22,719.922L1728.22,722.085L1724.63,722.085L1724.63,714.333L1731.32,714.333C1732.71,714.333 1733.91,714.445 1734.91,714.671C1735.92,714.896 1736.69,715.219 1737.24,715.64C1737.78,716.062 1738.05,716.563 1738.05,717.143C1738.05,717.719 1737.78,718.215 1737.24,718.631C1736.69,719.047 1735.92,719.366 1734.91,719.589C1734.9,719.591 1734.89,719.593 1734.88,719.595L1738.34,722.085L1734.48,722.085L1731.5,719.921C1731.44,719.922 1731.38,719.922 1731.32,719.922L1728.22,719.922ZM1728.22,718.492L1731.13,718.492C1732.23,718.492 1733.05,718.373 1733.6,718.135C1734.15,717.897 1734.43,717.566 1734.43,717.143C1734.43,716.715 1734.15,716.384 1733.6,716.148C1733.05,715.912 1732.23,715.794 1731.13,715.794L1728.22,715.794L1728.22,718.492ZM1748.59,717.528L1748.59,722.085L1745.24,722.085L1745.24,714.333L1748.19,714.333L1753.99,719.153L1759.68,714.333L1762.64,714.333L1762.67,722.085L1759.32,722.085L1759.29,717.445L1754.74,721.26L1753.13,721.26L1748.59,717.528ZM1774.24,718.847L1774.24,720.641L1782.67,720.641L1782.67,722.085L1770.68,722.085L1770.68,714.333L1782.37,714.333L1782.37,715.776L1774.24,715.776L1774.24,717.453L1781.43,717.453L1781.43,718.847L1774.24,718.847ZM1793.41,717.372L1793.41,722.085L1789.87,722.085L1789.87,714.333L1792.82,714.333L1800.53,719.045L1800.53,714.333L1804.07,714.333L1804.07,722.085L1801.11,722.085L1793.41,717.372Z" style="fill:rgb(148,57,57);"/>
    </g>
    <g transform="matrix(1.41371,0,0,1.05326,-672.808,-141.618)">
        <path d="M1482.96,936.834L1482.96,925.605L1479.66,925.605L1479.66,922.988L1488.65,922.988L1488.65,925.605L1485.35,925.605L1485.35,936.834L1482.96,936.834ZM1497.22,937.067C1495.76,937.067 1494.62,936.522 1493.79,935.43C1492.97,934.338 1492.55,932.773 1492.55,930.735L1492.55,922.988L1494.95,922.988L1494.95,930.632C1494.95,931.942 1495.15,932.889 1495.55,933.474C1495.95,934.059 1496.52,934.352 1497.24,934.352C1497.97,934.352 1498.54,934.059 1498.94,933.474C1499.34,932.889 1499.54,931.942 1499.54,930.632L1499.54,922.988L1501.89,922.988L1501.89,930.735C1501.89,932.773 1501.48,934.338 1500.65,935.43C1499.83,936.522 1498.69,937.067 1497.22,937.067ZM1507.18,936.834L1507.18,922.988L1509.57,922.988L1509.57,934.217L1514.74,934.217L1514.74,936.834L1507.18,936.834ZM1523.38,937.067C1521.92,937.067 1520.77,936.522 1519.95,935.43C1519.12,934.338 1518.71,932.773 1518.71,930.735L1518.71,922.988L1521.1,922.988L1521.1,930.632C1521.1,931.942 1521.31,932.889 1521.71,933.474C1522.11,934.059 1522.68,934.352 1523.4,934.352C1524.13,934.352 1524.69,934.059 1525.1,933.474C1525.5,932.889 1525.7,931.942 1525.7,930.632L1525.7,922.988L1528.05,922.988L1528.05,930.735C1528.05,932.773 1527.64,934.338 1526.81,935.43C1525.99,936.522 1524.84,937.067 1523.38,937.067ZM1535.57,928.694L1535.57,936.834L1533.34,936.834L1533.34,922.988L1535.31,922.988L1539.17,931.598L1542.97,922.988L1544.94,922.988L1544.96,936.834L1542.73,936.834L1542.71,928.547L1539.67,935.361L1538.6,935.361L1535.57,928.694Z" style="fill:rgb(148,57,57);"/>
    </g>
    <g transform="matrix(1.27504,0,0,1.05326,-395.929,-141.618)">
        <path d="M1147.15,747.424L1150.68,737.532L1153.31,737.532L1148.37,751.378L1145.75,751.378L1140.81,737.532L1143.68,737.532L1147.15,747.424ZM1159.56,748.416L1158.55,751.378L1155.83,751.378L1160.93,737.532L1163.54,737.532L1168.65,751.378L1165.89,751.378L1164.87,748.416L1159.56,748.416ZM1164.04,745.984L1162.22,740.691L1160.4,745.984L1164.04,745.984ZM1173.25,751.378L1173.25,737.532L1175.91,737.532L1175.91,748.761L1181.63,748.761L1181.63,751.378L1173.25,751.378ZM1186.53,751.378L1186.53,737.532L1189.18,737.532L1189.18,748.761L1194.9,748.761L1194.9,751.378L1186.53,751.378ZM1202.03,748.416L1201.01,751.378L1198.29,751.378L1203.39,737.532L1206.01,737.532L1211.12,751.378L1208.35,751.378L1207.33,748.416L1202.03,748.416ZM1206.5,745.984L1204.68,740.691L1202.86,745.984L1206.5,745.984ZM1215.72,751.378L1215.72,737.532L1220.91,737.532C1222.16,737.532 1223.26,737.818 1224.2,738.39C1225.15,738.963 1225.89,739.765 1226.42,740.798C1226.95,741.83 1227.22,743.048 1227.22,744.451C1227.22,745.854 1226.95,747.073 1226.42,748.108C1225.89,749.143 1225.15,749.947 1224.2,750.519C1223.26,751.092 1222.16,751.378 1220.91,751.378L1215.72,751.378ZM1218.37,748.753L1220.79,748.753C1221.55,748.753 1222.21,748.578 1222.77,748.228C1223.33,747.878 1223.76,747.38 1224.07,746.734C1224.38,746.089 1224.54,745.328 1224.54,744.451C1224.54,743.566 1224.38,742.805 1224.07,742.166C1223.76,741.526 1223.33,741.032 1222.77,740.682C1222.21,740.332 1221.55,740.157 1220.79,740.157L1218.37,740.157L1218.37,748.753ZM1238.16,751.611C1237.26,751.611 1236.43,751.433 1235.66,751.077C1234.9,750.721 1234.23,750.22 1233.67,749.576C1233.11,748.931 1232.68,748.174 1232.37,747.304C1232.05,746.435 1231.9,745.484 1231.9,744.451C1231.9,743.419 1232.05,742.47 1232.37,741.604C1232.68,740.738 1233.11,739.981 1233.67,739.334C1234.24,738.687 1234.9,738.186 1235.66,737.831C1236.42,737.476 1237.25,737.299 1238.15,737.299C1239.06,737.299 1239.89,737.476 1240.65,737.829C1241.41,738.183 1242.07,738.682 1242.63,739.326C1243.19,739.971 1243.62,740.727 1243.93,741.596C1244.25,742.464 1244.4,743.417 1244.4,744.452C1244.4,745.488 1244.25,746.442 1243.93,747.313C1243.62,748.185 1243.19,748.942 1242.63,749.585C1242.07,750.229 1241.41,750.727 1240.65,751.081C1239.89,751.434 1239.06,751.611 1238.16,751.611ZM1238.15,748.895C1238.66,748.895 1239.14,748.788 1239.57,748.573C1240,748.357 1240.38,748.052 1240.7,747.657C1241.02,747.262 1241.28,746.794 1241.45,746.251C1241.63,745.709 1241.73,745.109 1241.73,744.451C1241.73,743.794 1241.64,743.195 1241.46,742.656C1241.28,742.117 1241.03,741.649 1240.7,741.254C1240.38,740.859 1240,740.553 1239.57,740.338C1239.14,740.122 1238.67,740.015 1238.15,740.015C1237.64,740.015 1237.17,740.122 1236.74,740.338C1236.3,740.554 1235.92,740.859 1235.6,741.255C1235.28,741.651 1235.02,742.119 1234.84,742.659C1234.66,743.199 1234.57,743.796 1234.57,744.451C1234.57,745.106 1234.66,745.704 1234.84,746.247C1235.02,746.789 1235.27,747.259 1235.6,747.657C1235.92,748.054 1236.3,748.36 1236.74,748.574C1237.17,748.788 1237.64,748.895 1238.15,748.895ZM1249.8,751.378L1249.8,737.532L1252.45,737.532L1252.45,748.761L1258.17,748.761L1258.17,751.378L1249.8,751.378ZM1263.07,751.378L1263.07,737.532L1265.72,737.532L1265.72,751.378L1263.07,751.378ZM1271.83,751.378L1271.83,737.532L1277.03,737.532C1278.27,737.532 1279.37,737.818 1280.32,738.39C1281.26,738.963 1282,739.765 1282.54,740.798C1283.07,741.83 1283.33,743.048 1283.33,744.451C1283.33,745.854 1283.07,747.073 1282.54,748.108C1282,749.143 1281.26,749.947 1280.32,750.519C1279.37,751.092 1278.27,751.378 1277.03,751.378L1271.83,751.378ZM1274.49,748.753L1276.9,748.753C1277.66,748.753 1278.33,748.578 1278.88,748.228C1279.44,747.878 1279.88,747.38 1280.19,746.734C1280.5,746.089 1280.66,745.328 1280.66,744.451C1280.66,743.566 1280.5,742.805 1280.19,742.166C1279.88,741.526 1279.44,741.032 1278.88,740.682C1278.33,740.332 1277.66,740.157 1276.9,740.157L1274.49,740.157L1274.49,748.753Z" style="fill:rgb(148,57,57);"/>
    </g>
    <g transform="matrix(0.757728,0,0,0.757334,943.794,361.012)">
        <path d="M264.729,144.254C241.178,145.992 223.089,165.599 223.97,188.439C224.255,196.344 226.482,203.669 230.624,210.379C241.544,228.097 252.5,245.786 263.491,263.458C266.35,268.056 268.906,268.075 271.677,263.468C282.552,245.376 293.428,227.285 304.135,209.087C309.104,200.638 310.832,191.486 309.603,181.638C306.987,160.714 288.222,144.151 267.562,144.149C266.621,144.149 265.679,144.184 264.729,144.254ZM266.894,201.752C258.984,201.647 252.589,195.052 252.678,187.093C252.757,179.197 259.421,172.772 267.34,172.95C275.043,173.128 281.358,179.59 281.358,187.317C281.358,195.158 274.811,201.754 267.08,201.754C267.017,201.754 266.955,201.754 266.894,201.752Z" style="fill:rgb(244,153,17);fill-rule:nonzero;"/>
    </g>
</svg>
