<?xml version="1.0" encoding="UTF-8" standalone="no"?>
<!DOCTYPE svg PUBLIC "-//W3C//DTD SVG 1.1//EN" "http://www.w3.org/Graphics/SVG/1.1/DTD/svg11.dtd">
<svg width="100%" height="100%" viewBox="0 0 80 80" version="1.1" xmlns="http://www.w3.org/2000/svg" xmlns:xlink="http://www.w3.org/1999/xlink" xml:space="preserve" xmlns:serif="http://www.serif.com/" style="fill-rule:evenodd;clip-rule:evenodd;stroke-linejoin:round;stroke-miterlimit:2;">
    <g transform="matrix(-0.958399,0,0,1,79.7736,0.5)">
        <path d="M-0.022,38.74C-0.022,61.246 18.169,78.979 40.617,78.979C63.111,78.979 83.022,61.179 83.022,38.74C83.022,27.434 79.261,17.782 72.774,10.957C66.265,4.108 56.944,0.021 45.663,0.021C34.44,0.021 23.005,4.082 14.389,10.956C5.728,17.867 -0.022,27.553 -0.022,38.74ZM3.108,38.74C3.108,28.47 8.441,19.606 16.392,13.262C24.456,6.828 35.158,3.021 45.663,3.021C55.974,3.021 64.51,6.717 70.46,12.977C76.47,19.301 79.892,28.265 79.892,38.74C79.892,59.515 61.442,75.979 40.617,75.979C19.869,75.979 3.108,59.541 3.108,38.74Z"/>
    </g>
    <path d="M32.59,30.373C31.921,29.886 31.774,28.947 32.261,28.278C32.749,27.609 33.688,27.461 34.357,27.949L50.963,40.049C51.374,40.348 51.605,40.835 51.578,41.343C51.55,41.85 51.267,42.309 50.827,42.562L34.223,52.097C33.505,52.51 32.587,52.261 32.175,51.544C31.763,50.826 32.011,49.908 32.729,49.496C32.729,49.496 47.328,41.112 47.328,41.112L32.59,30.373Z"/>
</svg>
