<?xml version="1.0" encoding="UTF-8" standalone="no"?>
<!DOCTYPE svg PUBLIC "-//W3C//DTD SVG 1.1//EN" "http://www.w3.org/Graphics/SVG/1.1/DTD/svg11.dtd">
<svg width="100%" height="100%" viewBox="0 0 68 90" version="1.1" xmlns="http://www.w3.org/2000/svg" xmlns:xlink="http://www.w3.org/1999/xlink" xml:space="preserve" xmlns:serif="http://www.serif.com/" style="fill-rule:evenodd;clip-rule:evenodd;stroke-linejoin:round;stroke-miterlimit:2;">
    <g>
        <clipPath id="_clip1">
            <rect x="0" y="0" width="68" height="90"/>
        </clipPath>
        <g clip-path="url(#_clip1)">
            <g>
                <path d="M30.856,0C27.931,0.436 25.007,1.018 22.228,2.036C14.185,5.089 8.043,10.396 4.022,17.884C-0.146,25.59 -1.023,33.805 1.243,42.31C3.144,49.435 6.508,55.977 10.383,62.229C14.843,69.354 20.035,76.042 25.592,82.367C27.566,84.62 29.54,86.729 31.66,88.909C33.196,90.436 34.805,90.436 36.413,88.909C36.559,88.764 36.706,88.619 36.852,88.473C44.602,80.331 51.695,71.68 57.691,62.157C61.42,56.196 64.71,49.944 66.611,43.11C68.147,37.658 68.512,32.205 67.269,26.753C66.172,21.809 64.125,17.302 60.981,13.231C56.374,7.27 50.379,3.199 43.067,1.163C41.166,0.582 39.119,0.363 37.217,0L30.856,0Z" style="fill:rgb(87,10,10);fill-rule:nonzero;"/>
            </g>
            <g>
                <path d="M13.308,13.667C24.714,2.326 43.359,2.326 54.766,13.667C66.172,25.008 66.172,43.546 54.766,54.887C43.359,66.228 24.714,66.228 13.308,54.887C1.828,43.473 1.828,25.008 13.308,13.667ZM54.108,54.233C65.149,43.255 65.149,25.299 54.108,14.322C43.067,3.344 25.007,3.271 13.893,14.249C2.779,25.226 2.852,43.183 13.893,54.233C24.934,65.283 42.994,65.21 54.108,54.233Z" style="fill:rgb(232,160,48);fill-rule:nonzero;"/>
            </g>
            <g>
                <path d="M37.802,57.431C38.387,56.85 38.314,55.905 37.729,55.323C37.583,55.178 37.363,55.032 37.071,54.96L36.632,54.96C35.901,54.887 35.17,54.814 34.439,54.742L34.439,52.633L52.499,52.633L52.499,15.848L34.512,15.848L34.512,13.813C35.243,13.813 35.901,13.813 36.632,13.74L37.071,13.74C37.29,13.667 37.51,13.595 37.729,13.449C38.387,12.94 38.46,11.995 37.948,11.341C37.583,10.905 36.925,10.687 36.34,10.832L35.243,11.123L35.682,10.105C35.755,9.96 35.755,9.814 35.828,9.669C35.901,9.233 35.755,8.797 35.462,8.433C35.17,8.07 34.731,7.851 34.219,7.779C33.707,7.706 33.269,7.851 32.903,8.142C32.538,8.433 32.318,8.797 32.245,9.233C32.245,9.451 32.245,9.596 32.318,9.814L32.538,10.614L31.66,10.469C31.221,10.396 30.783,10.469 30.417,10.759C29.759,11.268 29.686,12.213 30.198,12.868C30.417,13.158 30.783,13.377 31.148,13.377L31.66,13.449C32.318,13.522 32.903,13.595 33.561,13.595L33.561,15.63L15.501,15.63L15.501,52.488L33.561,52.488L33.561,54.524L31.221,54.524C30.856,54.524 30.49,54.742 30.198,54.96C29.613,55.541 29.686,56.486 30.271,57.068C30.563,57.359 31.002,57.504 31.441,57.431L32.318,57.359L32.026,58.158C31.953,58.377 31.953,58.522 31.953,58.74C31.953,59.176 32.172,59.612 32.538,59.903C32.903,60.194 33.342,60.339 33.854,60.339C34.366,60.339 34.804,60.121 35.097,59.831C35.389,59.54 35.609,59.103 35.609,58.667C35.609,58.522 35.609,58.377 35.535,58.231L35.097,57.431L36.12,57.795C36.705,58.013 37.363,57.868 37.802,57.431ZM16.378,51.834L16.378,16.721L33.488,16.721L33.488,29.734C32.684,29.806 31.806,30.17 31.148,30.679L24.86,24.427C25.372,23.918 25.957,23.336 26.396,22.827L26.469,22.755C26.542,22.682 26.542,22.682 26.615,22.609L26.615,22.537C26.761,22.318 26.834,22.1 26.834,21.882C26.907,21.083 26.323,20.356 25.518,20.283C24.933,20.21 24.348,20.501 24.056,21.083L23.544,22.028L23.105,21.01C23.032,20.864 22.959,20.719 22.886,20.646C22.593,20.283 22.228,20.137 21.716,20.065C21.277,20.065 20.766,20.21 20.4,20.501C20.034,20.792 19.815,21.228 19.742,21.664C19.669,22.1 19.815,22.537 20.107,22.9C20.254,23.045 20.4,23.191 20.546,23.263L21.277,23.7L20.546,24.209C20.18,24.427 19.961,24.863 19.888,25.299C19.815,26.099 20.4,26.826 21.204,26.898C21.57,26.971 21.935,26.826 22.228,26.608L22.667,26.317C23.105,25.953 23.544,25.59 23.983,25.154L30.271,31.406C29.686,32.133 29.32,33.005 29.247,33.877L18.499,33.877L18.499,34.822L29.247,34.822C29.32,35.695 29.686,36.567 30.271,37.294L23.983,43.546C23.544,43.037 23.032,42.601 22.52,42.092L22.155,41.801C21.862,41.583 21.497,41.438 21.131,41.438C20.327,41.438 19.669,42.165 19.669,42.965C19.669,43.401 19.888,43.764 20.254,44.055L20.912,44.564L20.107,44.927C19.888,45 19.742,45.146 19.596,45.291C19.303,45.582 19.157,46.018 19.157,46.454C19.157,46.89 19.376,47.326 19.742,47.69C20.107,48.053 20.546,48.199 21.058,48.199C21.497,48.199 21.935,48.053 22.228,47.69C22.301,47.617 22.374,47.472 22.447,47.326L22.959,46.309L23.398,47.326C23.617,47.908 24.202,48.199 24.787,48.199C25.591,48.199 26.249,47.472 26.249,46.672C26.249,46.454 26.176,46.236 26.03,46.018L26.03,45.945C26.03,45.873 25.957,45.873 25.884,45.8L25.811,45.727C25.445,45.218 25.006,44.709 24.568,44.2L30.929,37.876C31.66,38.385 32.464,38.748 33.269,38.821L33.269,51.834L16.378,51.834ZM33.488,30.606L34.804,30.606C34.95,30.606 35.097,30.679 35.316,30.751C35.389,30.751 35.389,30.751 35.462,30.824C35.609,30.897 35.828,30.969 35.974,31.115C36.047,31.188 36.12,31.188 36.193,31.26C36.267,31.333 36.34,31.333 36.34,31.406C36.413,31.478 36.559,31.551 36.632,31.624C36.778,31.769 36.852,31.915 36.998,32.06C36.998,32.06 36.998,32.133 37.071,32.133C37.217,32.351 37.363,32.642 37.51,32.86L37.51,32.932C37.583,33.15 37.656,33.368 37.656,33.659L37.656,33.732C37.729,34.023 37.729,34.386 37.656,34.677L37.656,34.75C37.583,34.968 37.583,35.259 37.437,35.477L37.437,35.549C37.363,35.768 37.217,36.058 36.998,36.276C36.998,36.276 36.998,36.349 36.925,36.349C36.778,36.495 36.705,36.64 36.559,36.785C36.486,36.858 36.34,36.931 36.267,37.003C36.193,37.076 36.194,37.076 36.12,37.149C36.047,37.221 35.974,37.221 35.901,37.294C35.755,37.367 35.535,37.512 35.389,37.585C35.316,37.585 35.316,37.585 35.243,37.658C35.097,37.73 34.95,37.803 34.804,37.803L34.512,37.803C34.219,37.876 33.854,37.876 33.561,37.803L33.488,37.803C33.269,37.73 32.976,37.73 32.757,37.658L32.684,37.658C32.391,37.585 32.172,37.44 31.953,37.221C31.953,37.221 31.88,37.221 31.88,37.149C31.733,37.003 31.587,36.931 31.441,36.785C31.368,36.713 31.295,36.567 31.221,36.495C31.148,36.422 31.148,36.422 31.075,36.349C31.002,36.276 31.002,36.204 30.929,36.131C30.856,35.986 30.71,35.768 30.637,35.622C30.637,35.549 30.637,35.549 30.563,35.477C30.49,35.331 30.49,35.186 30.417,34.968L30.417,34.677C30.344,34.386 30.344,34.023 30.417,33.732L30.417,33.441C30.49,33.296 30.49,33.078 30.563,32.932C30.563,32.86 30.563,32.86 30.637,32.787C30.71,32.569 30.783,32.423 30.929,32.278C31.002,32.205 31.002,32.133 31.075,32.06C31.148,31.987 31.148,31.915 31.221,31.915C31.295,31.842 31.368,31.696 31.441,31.624C31.587,31.478 31.733,31.406 31.88,31.26C31.88,31.26 31.953,31.26 31.953,31.188C32.172,31.042 32.391,30.897 32.684,30.751L32.757,30.751C32.976,30.679 33.196,30.606 33.488,30.606ZM34.512,38.748C35.389,38.675 36.267,38.312 36.998,37.73L43.359,44.055C42.847,44.491 42.408,45 41.97,45.509L41.677,45.873C41.458,46.163 41.312,46.527 41.312,46.89C41.312,47.69 42.043,48.344 42.847,48.344C43.286,48.344 43.652,48.126 43.944,47.763L44.456,47.108L44.821,47.908C44.895,48.126 45.041,48.272 45.187,48.417C45.48,48.708 45.918,48.853 46.357,48.853C46.796,48.853 47.234,48.635 47.6,48.272C47.966,47.908 48.112,47.472 48.112,46.963C48.112,46.527 47.966,46.091 47.6,45.8C47.527,45.727 47.381,45.654 47.234,45.582L46.211,45.073L47.234,44.637C47.819,44.419 48.112,43.837 48.112,43.255C48.112,42.456 47.381,41.801 46.576,41.801C46.357,41.801 46.138,41.874 45.918,42.02L45.845,42.02C45.772,42.02 45.772,42.092 45.699,42.165L45.553,42.165C45.041,42.528 44.529,42.965 44.017,43.401L37.583,37.076C38.094,36.349 38.46,35.549 38.533,34.75L49.574,34.75L49.574,33.805L38.533,33.805C38.46,33.005 38.168,32.133 37.583,31.478L43.944,25.154C44.456,25.663 45.041,26.244 45.553,26.68C45.553,26.68 45.699,26.826 45.772,26.898L45.845,26.898C46.064,27.044 46.284,27.116 46.503,27.116C47.307,27.189 48.039,26.608 48.112,25.808C48.185,25.226 47.892,24.645 47.307,24.354L46.357,23.845L47.381,23.409C47.527,23.336 47.673,23.263 47.746,23.191C48.112,22.9 48.258,22.537 48.331,22.028C48.331,21.591 48.185,21.083 47.892,20.719C47.6,20.356 47.161,20.137 46.722,20.065C46.284,19.992 45.845,20.137 45.48,20.428C45.333,20.574 45.187,20.719 45.114,20.864L44.675,21.591L44.163,20.864C43.944,20.501 43.505,20.283 43.067,20.21C42.262,20.137 41.531,20.719 41.458,21.519C41.385,21.882 41.531,22.246 41.75,22.537L42.043,22.973C42.408,23.409 42.774,23.845 43.213,24.281L36.852,30.606C36.12,30.024 35.243,29.661 34.366,29.588L34.366,16.721L51.475,16.721L51.475,51.761L34.512,51.761L34.512,38.748Z" style="fill:rgb(232,160,48);fill-rule:nonzero;"/>
            </g>
        </g>
    </g>
</svg>
