<?xml version="1.0" encoding="UTF-8" standalone="no"?>
<!DOCTYPE svg PUBLIC "-//W3C//DTD SVG 1.1//EN" "http://www.w3.org/Graphics/SVG/1.1/DTD/svg11.dtd">
<svg width="100%" height="100%" viewBox="0 0 100 100" version="1.1" xmlns="http://www.w3.org/2000/svg" xmlns:xlink="http://www.w3.org/1999/xlink" xml:space="preserve" xmlns:serif="http://www.serif.com/" style="fill-rule:evenodd;clip-rule:evenodd;stroke-linejoin:round;stroke-miterlimit:2;">
    <g transform="matrix(0.929411,0,0,0.962576,1.02979,0.966895)">
        <path d="M105.379,49.967C105.379,78.786 82.291,101.5 53.81,101.5C25.33,101.5 0,78.786 0,49.967C0,21.148 18.924,0.379 47.404,0.379C75.885,0.379 105.379,21.148 105.379,49.967Z" style="fill:rgb(148,37,37);fill-rule:nonzero;"/>
    </g>
    <g transform="matrix(0.929411,0,0,0.929411,0.719288,2.59575)">
        <path d="M59.719,86.735C58.781,85.318 57.844,84.374 56.438,83.429C55.969,82.957 55.031,82.013 55.031,81.541C54.563,73.986 55.031,65.959 55.031,58.404C57.375,55.098 60.188,52.265 62.063,48.96C63.938,45.182 66.75,42.349 68.625,39.044C70.031,36.211 72.375,33.85 73.781,31.017C74.25,29.6 75.188,28.184 76.125,26.767L76.125,25.35C73.313,23.934 70.031,25.35 66.75,24.878C68.625,22.517 70.031,20.156 71.438,17.323C70.969,16.851 70.031,16.379 69.563,16.379C67.219,18.74 66.281,22.517 63.938,24.878L42.844,24.878C41.906,21.101 39.094,17.323 34.875,16.851C32.531,16.379 30.656,16.851 28.781,17.796C25.5,19.684 23.625,22.99 24.094,26.295C24.094,29.6 25.5,33.378 29.25,34.794C32.063,36.211 34.875,35.739 37.688,34.794C43.313,42.349 48,50.376 52.688,58.404L52.688,81.541C51.281,82.957 49.875,84.846 48.469,85.318C45.188,86.263 42.375,83.429 39.094,84.374C37.688,84.846 36.75,85.79 35.344,86.263C35.813,86.735 35.813,87.679 36.281,88.151C39.094,86.263 42.375,86.735 45.188,87.679C51.75,89.568 59.25,90.512 65.813,87.207C65.344,83.429 61.594,86.735 59.719,86.735ZM72.844,27.239C67.219,37.155 60.656,46.599 54.094,56.043C49.406,48.96 45.656,41.405 40.5,34.794L57.844,34.794C56.906,36.211 55.5,37.155 55.5,38.572C55.031,39.044 56.438,39.988 56.906,39.988C58.313,38.572 58.781,36.211 60.188,35.266C61.594,34.322 63.938,35.266 65.813,34.794C65.813,34.322 66.281,32.905 65.813,32.433C64.875,31.961 63.469,32.433 62.063,32.433C63,30.545 64.875,29.128 65.344,27.239L72.844,27.239ZM59.25,32.433L39.094,32.433C38.625,30.545 36.75,29.128 35.813,27.239L62.531,27.239C62.063,29.128 60.188,30.545 59.25,32.433ZM33.469,33.378C28.313,33.378 24.563,27.711 26.906,22.99C28.313,20.156 31.594,18.268 34.875,19.212C37.688,19.684 39.563,22.045 40.5,24.878C37.688,25.35 35.344,24.406 32.531,25.35C32.531,28.184 35.344,30.072 36.75,32.433C35.813,32.905 34.406,32.905 33.469,33.378ZM51.281,86.735C52.219,85.79 53.156,84.846 53.625,83.902C55.031,84.846 55.969,85.79 56.906,87.207C55.031,87.207 53.156,87.679 51.281,86.735Z" style="fill:white;fill-rule:nonzero;"/>
    </g>
    <g transform="matrix(0.929411,0,0,0.929411,0.719288,2.59575)">
        <path d="M77.531,79.652C73.781,79.652 70.5,79.18 66.75,78.707C63.938,77.763 60.656,76.819 58.313,79.652C58.313,80.124 59.25,81.541 59.719,81.068C63.469,79.652 67.219,81.068 70.969,82.013C73.313,82.485 75.656,82.013 78,82.013C78,81.068 77.531,80.596 77.531,79.652Z" style="fill:white;fill-rule:nonzero;"/>
    </g>
</svg>
