<?xml version="1.0" encoding="UTF-8" standalone="no"?>
<!DOCTYPE svg PUBLIC "-//W3C//DTD SVG 1.1//EN" "http://www.w3.org/Graphics/SVG/1.1/DTD/svg11.dtd">
<svg width="100%" height="100%" viewBox="0 0 100 100" version="1.1" xmlns="http://www.w3.org/2000/svg" xmlns:xlink="http://www.w3.org/1999/xlink" xml:space="preserve" xmlns:serif="http://www.serif.com/" style="fill-rule:evenodd;clip-rule:evenodd;stroke-linejoin:round;stroke-miterlimit:2;">
    <g transform="matrix(0.919033,0,0,0.966925,1.08766,0.745368)">
        <path d="M106.443,49.967C106.443,78.786 83.122,101.5 54.354,101.5C25.586,101.5 0,78.786 0,49.967C0,21.148 19.115,0.379 47.883,0.379C76.651,0.379 106.443,21.148 106.443,49.967Z" style="fill:rgb(148,37,37);fill-rule:nonzero;"/>
    </g>
    <g transform="matrix(0.919033,0,0,0.919033,0.809163,3.12439)">
        <path d="M95.225,52.524C92.902,50.981 91.354,45.578 87.869,47.893C82.061,52.524 77.028,57.541 71.607,62.172C67.735,53.682 64.25,44.42 60.378,35.931C62.702,34.773 65.025,34.001 67.348,33.229C71.994,30.914 77.415,29.756 81.287,26.283C81.674,25.512 80.125,24.74 79.738,24.354C77.802,23.196 75.866,22.424 73.93,21.653C70.833,20.881 67.735,20.109 64.638,20.495C56.507,21.267 49.537,24.74 43.342,30.142C42.955,30.528 42.568,31.686 42.181,32.072C41.019,33.229 40.245,34.387 39.083,35.931C38.309,37.088 37.921,38.246 37.534,39.79C37.147,41.719 35.986,43.649 37.147,45.578C44.504,42.877 51.473,39.79 58.442,36.702C60.766,41.719 63.476,46.736 65.412,52.138C66.573,55.611 68.509,59.084 69.671,62.557C53.022,62.172 36.76,61.4 20.111,61.786C19.336,61.786 18.175,62.172 17.4,62.557C15.852,63.715 14.303,65.259 14.69,67.96C15.464,71.047 18.562,72.977 21.66,72.205C21.66,73.363 22.047,75.292 21.272,75.678C20.885,76.45 18.949,75.678 17.788,76.064L17.788,77.993C36.373,77.993 54.958,77.993 73.543,78.379C73.543,77.607 73.93,76.836 73.543,76.45C72.769,76.064 71.22,76.836 70.833,76.45C70.058,75.292 70.445,73.748 70.445,72.591C74.704,73.363 77.802,71.047 80.899,68.346C81.287,67.96 81.287,67.574 81.674,67.188C84.384,64.873 86.707,63.329 89.03,60.628C89.805,59.856 91.354,59.084 92.128,58.313C92.902,57.155 93.677,56.383 94.838,55.611C95.613,54.84 96,53.682 95.225,52.524ZM47.601,39.404C47.601,37.86 47.988,36.702 48.376,35.545C48.763,34.773 49.15,34.001 49.537,32.844C50.699,30.142 52.635,27.827 54.183,25.512C59.217,26.283 65.025,27.055 69.284,30.142C61.927,33.229 54.958,36.317 47.601,39.404ZM66.573,22.424C70.445,23.196 74.704,23.196 78.189,25.897C75.866,27.055 73.543,27.827 71.22,28.985C67.348,26.283 62.314,24.74 57.668,23.968C60.766,23.582 63.476,22.424 66.573,22.424ZM50.699,27.055C47.988,30.914 45.665,35.545 45.665,40.176C43.342,40.947 41.019,42.491 38.696,43.263C39.47,40.947 39.857,38.632 41.019,36.702C41.406,36.317 41.793,35.545 42.181,34.773C42.568,34.001 43.342,33.615 43.729,32.844C44.504,32.458 44.891,31.686 45.665,30.914C47.214,29.37 48.763,28.213 50.699,27.055ZM23.208,72.205C24.37,72.205 25.531,71.819 25.919,72.205C26.693,73.363 26.693,74.906 25.919,76.064C25.919,76.45 24.37,76.064 23.595,76.064C23.595,74.906 23.595,73.363 23.208,72.205ZM63.476,72.591L63.476,76.45C51.86,75.678 39.857,76.064 28.242,76.064L28.242,72.205C39.857,71.819 51.86,72.591 63.476,72.591ZM65.412,76.45C65.412,75.292 65.025,73.748 65.799,72.591C66.186,72.205 67.735,72.205 68.122,72.591C68.897,73.748 68.897,75.292 68.122,76.45C67.735,76.836 66.573,76.45 65.412,76.45ZM93.677,54.068C87.482,59.47 81.674,65.259 75.479,70.275C56.894,71.433 38.309,69.889 19.724,70.275C17.788,70.275 16.626,68.346 16.626,66.802C16.626,65.645 17.788,64.487 18.949,64.101C27.08,62.943 35.211,63.715 43.342,63.715C53.022,63.715 62.314,64.873 71.994,64.101C78.189,59.856 83.223,54.454 89.03,49.437L89.805,49.437C90.966,51.366 92.902,52.138 93.677,54.068Z" style="fill:white;fill-rule:nonzero;"/>
    </g>
</svg>
