<?xml version="1.0" encoding="UTF-8" standalone="no"?>
<!DOCTYPE svg PUBLIC "-//W3C//DTD SVG 1.1//EN" "http://www.w3.org/Graphics/SVG/1.1/DTD/svg11.dtd">
<svg width="100%" height="100%" viewBox="0 0 100 100" version="1.1" xmlns="http://www.w3.org/2000/svg" xmlns:xlink="http://www.w3.org/1999/xlink" xml:space="preserve" xmlns:serif="http://www.serif.com/" style="fill-rule:evenodd;clip-rule:evenodd;stroke-linejoin:round;stroke-miterlimit:2;">
    <g transform="matrix(0.927701,0,0,0.957511,0.441278,1.4063)">
        <path d="M106.842,49.774C106.842,78.701 83.433,101.5 54.557,101.5C25.682,101.5 0,78.701 0,49.774C0,20.847 19.187,0 48.063,0C76.938,0 106.842,20.847 106.842,49.774Z" style="fill:rgb(148,37,37);fill-rule:nonzero;"/>
    </g>
    <g transform="matrix(0.927701,0,0,0.927701,0.362278,2.66917)">
        <path d="M37.263,67.911L39.028,67.911C39.911,64.82 39.469,62.171 39.469,59.08C46.089,59.521 52.267,59.521 58.886,59.521C58.886,62.171 58.003,65.262 59.327,67.911C59.768,68.353 60.651,68.353 61.533,68.353C60.651,65.262 61.092,62.612 61.092,59.521C61.975,50.689 61.092,42.299 61.975,33.467C69.035,33.909 76.096,34.35 83.156,33.026L83.156,31.701C80.95,30.818 78.744,31.259 76.537,31.259C76.978,25.518 73.448,17.57 66.388,19.336C61.533,20.661 59.327,26.402 59.768,31.259L54.914,31.259C54.473,27.726 54.473,24.194 51.825,21.544C49.178,18.895 45.206,18.453 42.117,20.219C38.587,22.427 37.704,26.843 37.704,30.818C34.174,30.818 30.644,29.934 27.113,31.259L27.113,33.026C30.644,33.467 34.174,33.026 37.704,33.026C37.704,44.507 36.822,56.43 37.263,67.911ZM39.469,56.871C39.469,52.897 39.469,48.923 39.911,44.949C46.53,44.507 52.708,45.832 59.327,45.39C59.327,49.364 59.768,53.339 58.886,57.313C52.267,57.313 46.089,57.313 39.469,56.871ZM59.327,43.182C52.708,43.624 46.53,42.299 39.911,42.741L39.911,33.026C46.53,33.026 53.149,33.909 59.768,33.467C60.21,36.558 58.886,40.091 59.327,43.182ZM64.181,23.311C66.388,21.103 69.918,21.103 72.124,23.311C73.889,25.518 74.331,28.61 74.331,31.259L61.975,31.259C61.533,28.168 62.416,25.518 64.181,23.311ZM42.558,22.869C44.323,21.103 46.971,21.103 49.178,21.986C52.267,24.194 52.708,27.726 52.708,31.259C48.295,31.259 44.323,30.376 39.911,30.818C39.911,28.168 40.793,25.077 42.558,22.869Z" style="fill:white;fill-rule:nonzero;"/>
    </g>
    <g transform="matrix(0.927701,0,0,0.927701,0.362278,2.66917)">
        <path d="M81.833,72.769C80.068,71.003 76.979,70.561 74.772,72.327C73.007,73.21 71.242,74.535 69.477,73.21C65.506,70.119 61.093,71.886 57.121,73.652C56.68,73.652 55.797,73.652 55.356,73.21C52.708,71.444 49.619,69.678 46.972,71.444C45.648,72.327 44.324,73.21 43,73.21C39.47,72.769 36.381,69.236 32.85,71.444C31.527,72.769 29.32,73.652 27.555,73.21C25.79,72.327 24.025,71.444 22.26,71.003C22.26,71.886 21.818,72.769 22.26,73.21C23.142,74.094 24.466,74.094 25.79,74.977C28.879,76.743 31.968,74.977 34.616,73.21C35.498,72.769 36.822,72.769 37.705,73.21C39.911,74.535 42.117,76.302 44.765,75.418C46.972,74.535 49.178,72.327 51.826,73.652C55.356,75.86 58.886,75.86 62.417,74.094C64.182,72.769 66.388,73.652 67.712,75.418C69.036,76.302 71.242,76.302 72.566,75.86C74.772,74.977 76.979,72.769 79.627,73.652C81.392,74.535 83.157,75.418 84.922,75.86C86.246,73.21 83.598,73.652 81.833,72.769Z" style="fill:white;fill-rule:nonzero;"/>
    </g>
    <g transform="matrix(0.927701,0,0,0.927701,0.362278,2.66917)">
        <path d="M77.861,77.626C75.655,77.185 74.331,78.951 72.566,79.834C71.684,80.276 70.36,80.276 69.477,79.834C65.506,76.302 61.093,78.068 57.121,79.834C56.68,79.834 55.797,79.834 55.356,79.393C53.15,78.068 50.943,76.743 48.295,77.185C46.53,78.068 44.765,79.393 43,79.393C39.47,78.951 36.381,75.418 32.85,77.626C31.527,78.951 29.32,79.834 27.555,79.393C25.79,78.51 24.025,77.626 22.26,77.185C22.26,78.068 21.818,78.951 22.26,79.393C23.142,80.276 24.466,80.276 25.79,81.159C28.879,82.926 31.968,81.159 34.616,79.393C35.498,78.951 36.822,78.951 37.705,79.393C39.911,80.718 42.117,82.484 44.765,81.601C46.972,80.718 49.178,78.51 51.826,79.834C55.356,82.042 58.886,82.042 62.417,80.276C64.182,78.951 66.388,79.834 67.712,81.601C69.036,82.484 71.242,82.484 72.566,82.042C74.772,81.159 76.979,78.951 79.627,79.834C81.392,80.718 83.157,81.601 84.922,82.042C84.922,81.159 85.363,80.276 84.922,79.834C83.598,78.951 82.274,79.393 80.95,78.068C80.068,77.185 78.744,77.626 77.861,77.626Z" style="fill:white;fill-rule:nonzero;"/>
    </g>
</svg>
